<svg id="Capa_1" enable-background="new 0 0 512 512" height="512" viewBox="0 0 512 512" width="512" xmlns="http://www.w3.org/2000/svg"><g><g><g clip-rule="evenodd" fill-rule="evenodd"><path d="m415.564 368.498v-127.499c0-16.499-13.5-30-30-30s-30 13.5-30 30v-15c0-16.5-13.5-30-30-30s-30 13.5-30 30v-15c0-16.5-13.5-30-30-30s-30 13.5-30 30v-91l-7.5-37.5c-3.235-16.175-13.5-30-30-30s-33.235 13.82-30 30l7.5 37.5v113.103l-30 30.397v112.499l59.215 75.001v53.501h180.786v-53.501z" fill="#fbf2e2"/><path d="m235.564 147.464c22.417-12.968 37.501-37.204 37.501-64.964 0-41.421-33.579-75-75.001-75s-75.001 33.579-75.001 75c0 33.582 22.073 62.007 52.501 71.564v-34.065l-7.5-37.5c-3.235-16.179 13.5-30 30-30s26.765 13.824 30 30l7.5 37.5z" fill="#9eb6f4"/><path d="m235.564 147.464c8.78-5.079 16.435-11.887 22.5-19.959v-9.734l-7.937-39.684c-5.218-26.088-23.894-48.087-52.063-48.087-29.74 0-58.301 25.724-52.063 56.912l7.063 35.315v20.273c6.716 5.044 14.304 8.99 22.5 11.564v-34.065l-7.5-37.5c-3.235-16.179 13.5-30 30-30s26.765 13.824 30 30l7.5 37.5z" fill="#6e91ef"/><path d="m208.886 54.746c-3.239-1.443-6.849-2.246-10.822-2.246-16.5 0-33.235 13.82-30 30l7.5 37.5v113.103l-30 30.397v112.499l59.215 75.001v53.5h22.5v-49.205l6.6-3.695-65.815-83.101v-97.499l7.5-7.599v84.053h22.5v-227.455l-7.5-37.5c-2.456-12.283 6.599-23.204 18.322-27.753z" fill="#f7e0ba"/><path d="m276.814 183.203c-19.443-7.929-41.25 6.429-41.25 27.796v52.5h22.5v-52.5c0-12.527 7.782-23.323 18.75-27.796zm120 29.999c-19.443-7.929-41.25 6.429-41.25 27.797v37.5h22.5v-37.5c0-12.527 7.782-23.323 18.75-27.797zm-60-15c-19.443-7.929-41.25 6.429-41.25 27.796v45h22.5v-45c0-12.526 7.782-23.322 18.75-27.796z" fill="#f7e0ba"/></g><g><path d="m393.065 345.999h-15v-15h15zm0-30.001h-15v-15h15z" fill="#fff"/></g><g><path d="m279.65 159.961-10.878-10.328c11.566-12.182 19.819-27.182 23.869-43.377l14.552 3.639c-4.676 18.7-14.2 36.012-27.543 50.066zm-176.163-101.216-14.552-3.639c4.675-18.7 14.2-36.012 27.543-50.067l10.878 10.328c-11.566 12.182-19.82 27.182-23.869 43.378z" fill="#d571ab"/></g></g><g><path d="m423.065 240.999c0-20.678-16.823-37.5-37.5-37.5-9.522 0-18.227 3.567-24.847 9.436-5.315-14.255-19.068-24.436-35.153-24.436-9.522 0-18.227 3.567-24.847 9.436-5.315-14.255-19.068-24.436-35.153-24.436-8.436 0-16.228 2.801-22.5 7.52v-29.379c23.234-15.159 37.5-41.253 37.5-69.141 0-18.995-6.617-37.541-18.631-52.22l-11.607 9.501c9.827 12.006 15.239 27.177 15.239 42.719 0 19.33-8.38 37.609-22.5 50.289v-13.532l-7.646-38.228c-4.378-21.886-19.041-36.028-37.356-36.028-11.691 0-23.492 5.537-30.799 14.449-5.94 7.246-8.268 15.954-6.555 24.521l7.354 36.772v22.255c-22.791-11.235-37.501-34.405-37.501-60.497 0-37.22 30.281-67.5 67.501-67.5 15.543 0 30.715 5.412 42.72 15.24l9.502-11.607c-14.678-12.016-33.224-18.633-52.222-18.633-45.491 0-82.501 37.009-82.501 82.5 0 34.363 20.882 64.576 52.501 76.861v70.664l-30 30.397v118.18l59.215 75.001v58.397h75.393v-15h-60.392v-37.154l21.666 3.595 2.455-14.798-27.531-4.569-55.804-70.681v-106.816l15-15.198v96.074h15v-228.197l-7.646-38.228c-1.045-5.227 1.297-9.449 3.446-12.07 4.461-5.442 11.997-8.958 19.198-8.958 13.162 0 20.328 12.382 22.646 23.971l7.354 36.772v142.757h15v-52.5c0-12.407 10.093-22.5 22.5-22.5 12.406 0 22.5 10.093 22.5 22.5v60h15v-45c0-12.407 10.093-22.5 22.5-22.5 12.406 0 22.5 10.093 22.5 22.5v52.5h15v-37.5c0-12.407 10.093-22.5 22.5-22.5s22.5 10.093 22.5 22.5v126.178l-28.05 77.141-26.07 4.326 2.456 14.798 21.665-3.595v37.152h-60.393v15h75.393v-59.68l30-82.501z"/><path d="m287.673 497h15v15h-15z"/></g></g></svg>