<svg id="Capa_1" enable-background="new 0 0 511.979 511.979" height="512" viewBox="0 0 511.979 511.979" width="512" xmlns="http://www.w3.org/2000/svg"><g><g><g clip-rule="evenodd" fill-rule="evenodd"><path d="m141.821 247.596v59.999l51.579 141.199v55.685h180.786v-55.685l29.999-75.001-15-89.999 16.701-52.864c4.97-15.732-3.836-32.673-19.569-37.643-15.716-4.965-32.634 3.815-37.626 19.514l4.501-14.248c4.971-15.733-3.836-32.673-19.57-37.644-15.733-4.97-32.673 3.836-37.643 19.57l4.518-14.303c4.971-15.734-3.836-32.673-19.57-37.644-15.734-4.97-32.673 3.835-37.643 19.569l14.008-44.34 31.334-51.414c8.583-14.083 3.189-32.743-11.131-40.94-14.319-8.197-32.622-3.12-40.94 11.131l-37.726 64.633z" fill="#fbf2e2"/><path d="m157.352 133.347 12.258 36.045 29.218-82.222-16.398-25.009c-13.565-20.689-41.614-26.528-62.305-12.964l-12.545 8.224z" fill="#fbf2e2"/><path d="m157.713 134.409 11.897 34.984 29.218-82.222-15.969-24.356z" fill="#f7e0ba"/><path d="m141.821 247.596v59.999l51.579 141.199v55.685h22.5v-55.685l-51.58-141.199v-59.999l57.008-160.425 37.726-64.633c3.525-6.039 8.843-10.429 14.891-12.861-13.669-5.583-29.746-.235-37.39 12.861l-37.726 64.633zm192.41 10.972 20.403 6.439 16.538-52.151c2.796-8.849 9.377-15.507 17.401-18.754-16.146-6.562-34.64 2.1-39.901 18.754zm-54.953-25.226 16.701-52.864c5.261-16.654 23.755-25.316 39.901-18.754-8.024 3.248-14.606 9.905-17.401 18.754l-18.797 59.302zm-54.954-25.226 18.96-60.016c5.261-16.654 23.755-25.316 39.901-18.754-8.024 3.248-14.606 9.905-17.401 18.754l-21.057 66.454z" fill="#f7e0ba"/></g><g><path d="m360.877 342.041-2.467-14.796 14.795-2.467 2.467 14.796zm-4.933-29.593-2.466-14.796 14.795-2.466 2.466 14.796z" fill="#fff"/></g></g><g><path d="m388.576 186.134c-8.798-2.779-18.135-2.227-26.531 1.53-.27-5.311-1.685-10.555-4.219-15.429-4.631-8.909-12.425-15.471-21.945-18.479-9.079-2.869-18.451-2.09-26.532 1.512-.271-5.304-1.687-10.542-4.217-15.411-4.632-8.908-12.425-15.47-21.945-18.478-8.042-2.541-16.317-2.217-23.72.394l4.703-14.887 30.86-50.637c5.081-8.337 6.512-18.247 4.028-27.901-2.538-9.867-9.039-18.415-17.837-23.451-17.792-10.185-40.737-3.97-51.145 13.859l-31.619 54.171-9.755-14.878c-15.873-24.208-48.482-30.994-72.688-15.124l-18.818 12.336 24.885 37.961 12.545-8.224-16.661-25.417 6.273-4.112c17.291-11.335 40.582-6.488 51.921 10.804l14.355 21.895-20.748 58.387-5.619-16.525-21.295-32.484-12.545 8.224 20.251 30.893 11.112 32.675-27.35 76.964v62.619l51.58 141.199v61.858h75.393v-15h-60.393v-39.338l21.666 3.595 2.455-14.798-26.077-4.327-49.624-135.842v-57.379l56.34-158.544 37.372-64.026c6.271-10.746 20.062-14.515 30.736-8.403 5.305 3.037 9.228 8.202 10.763 14.17 1.467 5.699.646 11.508-2.31 16.358l-31.807 52.19-14.276 45.19c-.002.006-.004.011-.006.017l-18.96 60.016 14.304 4.519 18.963-60.024c3.74-11.824 16.402-18.405 28.229-14.668 5.7 1.8 10.371 5.74 13.154 11.093s3.323 11.44 1.523 17.14l-21.219 67.167 14.303 4.519 16.726-52.943c3.77-11.779 16.401-18.329 28.207-14.598 5.7 1.8 10.372 5.74 13.155 11.094 2.782 5.353 3.324 11.44 1.523 17.139l-18.961 60.016 14.303 4.519 14.442-45.713c1.801-5.699 5.74-10.37 11.093-13.153 5.354-2.783 11.44-3.324 17.14-1.524 11.83 3.738 18.414 16.403 14.678 28.233l-17.244 54.581 14.951 89.705-27.651 69.131-26.226 4.352 2.455 14.798 21.665-3.595v39.338h-60.393v15h75.393v-61.741l30.243-75.608-15.049-90.293 16.158-51.147c6.229-19.722-4.743-40.83-24.461-47.06z"/><path d="m276.293 496.979h15v15h-15z"/></g></g></svg>