<svg id="Capa_1" enable-background="new 0 0 512.027 512.027" height="512" viewBox="0 0 512.027 512.027" width="512" xmlns="http://www.w3.org/2000/svg"><g><g><g clip-rule="evenodd" fill-rule="evenodd"><path d="m23.569 128.656 39.284 215.491 27.972 62.728v-142.494l18.524-22.695-17.869-81.203c-5.317-24.16-29.005-39.926-53.226-34.884z" fill="#fbf2e2"/><path d="m68.325 356.419 22.5 50.456v-142.494l18.524-22.696-6.167-28.026-34.857 42.705z" fill="#f7e0ba"/><path d="m221.993 147.75c-2.379-3.51-5.324-6.8-8.766-9.609l-11.621-9.485-110.781 135.725v142.494l97.823 97.652h142.499l82.501-29.999h76.001v-180.786h-76l-37.039-54.782-72.38-46.43-61.913-63.874-11.621 9.485c-3.502 2.857-6.395 6.097-8.703 9.609zm59.588 139.608-113.416 18.128v-40.96l54.057-66.408c.646 1.129 1.335 2.242 2.066 3.338z" fill="#fbf2e2"/><path d="m290.231 263.287 44.208-7.163 6.932 36.157c5.766 30.082-9.689 59.053-35.536 72.566l23.09 3.619-3.958 36.257c-4.059 37.187-38.857 67.712-76.806 59.386l-45.148-8.823 20.323-19.658 29.646 6.504c24.163 5.301 46.933-15.257 49.617-39.851l1.628-14.912-114.748-17.984 94.069-20.201c24.188-5.194 40.381-28.369 35.723-52.667l-2.824-14.732-114.678 18.33 79.81-12.757-57.293-85.902c-10.987-16.473-12.725-37.712-2.372-53.59-1.59 5.936 7.133 22.662 10.081 27.767z" fill="#f7e0ba"/><path d="m213.227 138.141-7.59-6.195c-19.613 26.019-15.655 58.624 1.632 84.543 7.477-8.72 12.697-13.866 14.955-18.367-9.177-16.028-10.167-35.514-.232-50.372-2.437-3.597-5.398-6.861-8.765-9.609z" fill="#f7e0ba"/><path d="m113.325 236.815-22.5 27.566v142.494l97.822 97.652h30l-105.322-105.152z" fill="#f7e0ba"/></g><g><path d="m467.149 361.242h-15v-15h15zm0-30h-15v-15h15z" fill="#fff"/></g><g><path d="m156.592 114.36-22.228-61.723 53.695 17.541 33.902-70.178 33.902 70.178 53.695-17.541-22.228 61.723-14.113-5.082 11.831-32.855-36.99 12.084-26.097-54.023-26.097 54.023-36.991-12.083 11.832 32.853z" fill="#faef93"/></g></g><path d="m497.149 286.242h-79.519l-35.672-52.762-72.949-46.794-66.101-68.195-16.955 13.839c-1.419 1.158-2.752 2.38-4.011 3.652-1.27-1.279-2.58-2.515-3.973-3.652l-17.432-14.227-87.195 106.829-14.536-66.062c-6.214-28.227-34.064-46.449-62.08-40.615l-21.848 4.549 8.88 48.705 14.756-2.69-6.255-34.312 7.523-1.566c20.017-4.166 39.919 8.913 44.373 29.153l17.089 77.659-17.92 21.955v109.932l-13.254-29.724-28.865-158.34-14.758 2.69 29.026 159.226.162.886 28.906 64.822 101.004 100.827h146.923l82.501-29.999h82.18zm-275.614-75.398 47.322 70.953-93.192 14.896v-29.5zm260.614 256.184h-59.654l3.696-22.274v-30.618h-15v29.382l-4.225 25.459-77.141 28.05h-138.075l-93.426-93.262v-136.712l104.35-127.844 5.811 4.742c1.623 1.325 3.12 2.811 4.508 4.409-7.414 14.541-7.485 32.414.301 48.849l-52.628 64.651v37.231l-20.644 3.3 2.367 14.813 168.063-26.864 1.455 7.59c3.807 19.857-9.62 39.561-29.933 43.922l-96.592 20.743-25.792 30.819 11.504 9.627 21.415-25.588 103.487 16.219-.852 7.797c-1.199 10.992-7.268 21.4-16.232 27.842-7.447 5.352-16.085 7.305-24.321 5.497l-33.576-7.367-23.215 22.454 10.428 10.781 17.432-16.86 25.717 5.642c12.449 2.732 25.337-.098 36.289-7.967 10.239-7.358 17.725-18.466 20.941-30.671.003 0 .007.001.01.002 23.213 3.548 34.37 6.037 34.37 23.688h15c0-13.949-5.44-24.104-16.17-30.182-8.717-4.938-19.509-6.588-30.934-8.334-.017-.003-.034-.005-.05-.008l1.628-14.918-81.894-12.835 54.557-11.716c13.646-2.931 25.471-10.838 33.294-22.266 7.922-11.573 10.842-25.476 8.222-39.146l-4.193-21.874-37.296 5.961-54.623-81.898c-12.346-18.511-10.281-40.945 4.91-53.344l6.285-5.13 57.12 58.929.605.624 71.813 46.066 35.256 52.146 4.776 28.777 14.797-2.456-3.595-21.665h59.654z"/></g></svg>