<svg id="Capa_1" enable-background="new 0 0 512.001 512.001" height="512" viewBox="0 0 512.001 512.001" width="512" xmlns="http://www.w3.org/2000/svg"><g><g><path clip-rule="evenodd" d="m27.14 260.087 72.751 54.307 100.249 124.703v65.405h180.786v-65.405l22.499-82.501v-81.498l29.699-157.005c3.066-16.212-7.672-31.99-23.883-35.065s-31.951 7.684-35.066 23.882l-26.575 138.187 8.22-200.003c.677-16.485-12.133-30.579-28.615-31.323s-30.538 12.138-31.324 28.615l-9.53 199.789-16.535-206.987c-1.313-16.443-15.775-28.868-32.225-27.596s-28.889 15.777-27.596 32.224l16.14 205.281-29.238-152.036c-3.115-16.198-18.855-26.957-35.066-23.882s-26.949 18.854-23.883 35.065l29.699 157.005v28.848l-68.554-51.173c-19.826-14.799-48.18-10.684-62.979 9.142z" fill="#fbf2e2" fill-rule="evenodd"/><path clip-rule="evenodd" d="m27.14 260.087 72.751 54.307 100.249 124.703v65.405h22.5v-61.672l10.488 1.74-110.737-137.676-83.423-62.277c-4.16 4.547-8.104 10.482-11.828 15.47zm379.112-177.473c-13.304-1.158-25.776 6.77-30.565 19.052l-28.087 143.431 20.086 2.224 28.988-147.912c1.321-6.739 4.783-12.542 9.578-16.795zm-77.798-68.759c-.414-.036-.83-.066-1.248-.085-16.482-.744-30.538 12.138-31.324 28.615l-9.53 199.789h21.216l10.814-207.289c.437-8.378 4.234-15.829 10.072-21.03zm-85.974-6.239c-6.758 6.033-10.653 15.024-9.986 24.701l14.51 210.47-20.87 2.311-16.14-205.281c-1.293-16.447 11.146-30.953 27.596-32.224 1.654-.129 3.288-.116 4.89.023zm-72.491 61.153c-7.586 6.795-11.562 17.291-9.541 27.975l29.699 157.005v36.348h-22.5v-28.848l-29.699-157.005c-3.066-16.212 7.672-31.991 23.883-35.065 2.753-.522 5.492-.645 8.158-.41z" fill="#f5dfbb" fill-rule="evenodd"/><g><path d="m380.925 349.096h-15v-15h15zm0-30.001h-15v-15h15z" fill="#fff"/></g><g><path d="m461.54 441.248-11.045-10.148c14.307-15.571 24.281-36.548 28.087-59.067 3.807-22.519 1.278-45.608-7.118-65.016l13.768-5.956c9.671 22.355 12.486 47.761 8.142 73.472-4.347 25.709-15.354 48.779-31.834 66.715zm-22.091-20.297-11.045-10.148c10.432-11.354 17.747-26.898 20.598-43.769 2.852-16.87 1.05-33.954-5.072-48.105l13.768-5.956c7.259 16.78 9.424 36.867 6.096 56.561-3.331 19.693-11.975 37.954-24.345 51.417zm-381.198-274.977c-6.795-23.389-6.404-48.947 1.127-73.913 7.534-24.963 21.345-46.473 39.942-62.202l9.688 11.453c-16.146 13.655-28.671 33.217-35.268 55.083-6.598 21.866-6.982 45.091-1.084 65.395zm28.81-8.368c-5.1-17.557-4.731-37.757 1.038-56.88 5.771-19.123 16.636-36.155 30.594-47.962l9.688 11.453c-11.771 9.957-20.978 24.461-25.92 40.842s-5.296 33.557-.995 48.362z" fill="#fbf085"/></g></g><g><path d="m283.033 497.001h15v15h-15z"/><path d="m410.638 75.658c-20.266-3.843-39.926 9.54-43.829 29.834l-7.585 39.444 4.091-99.535c.847-20.644-15.199-38.194-35.771-39.123-20.616-.938-38.171 15.105-39.154 35.749l-3.927 82.324-7.171-89.762c-1.646-20.601-19.746-36.08-40.28-34.476-9.966.771-19.054 5.402-25.589 13.042-6.524 7.628-9.688 17.305-8.905 27.248l5.609 71.336-3.864-20.095c-3.903-20.295-23.569-33.683-43.829-29.834-20.305 3.852-33.697 23.513-29.854 43.828l4.278 22.617 14.738-2.788-4.278-22.617c-2.306-12.192 5.729-23.992 17.911-26.303 12.159-2.306 23.959 5.737 26.304 17.93l27.708 144.084-14.281 1.556 1.625 14.911 43.575-4.747-1.625-14.911-13.526 1.473-15.538-197.615c-.467-5.944 1.434-11.741 5.352-16.321 3.929-4.593 9.378-7.376 15.346-7.838 12.358-.952 23.183 8.34 24.171 20.715l15.889 198.89h-13.861v15h43.8v-15h-13.949l9.155-191.932c.593-12.402 11.131-22.037 23.495-21.479 12.342.557 21.969 11.109 21.459 23.522l-7.891 191.972-13.627-1.509-1.65 14.909 43.233 4.787 1.65-14.909-13.543-1.499 25.04-130.211c2.345-12.193 14.138-20.237 26.304-17.93 12.183 2.311 20.217 14.11 17.911 26.303l-29.83 157.696v81.197l-20.97 76.894-55.649 9.234 2.455 14.798 51.665-8.573v49.058h-60.393v15h75.393v-71.901l22.499-82.501v-81.799l29.568-156.315c3.842-20.316-9.55-39.977-29.855-43.828z"/><path d="m94.606 244.935 70.551 52.663h39.989c37.22 0 67.5 30.28 67.5 67.5h15c0-45.491-37.01-82.5-82.5-82.5h-29.999v-22.051l-22.764-120.342-14.738 2.788 22.502 118.96v13.188l-56.568-42.226c-23.199-17.317-56.159-12.531-73.475 10.666l-13.461 18.031 77.999 58.224 97.997 121.902v70.264h75.394v-15h-60.394v-49.058l51.666 8.573 2.455-14.798-57.569-9.553-98.454-122.472-.597-.742-67.503-50.389 4.487-6.011c12.37-16.568 35.913-19.986 52.482-7.617z"/></g></g></svg>