<svg id="Capa_1" enable-background="new 0 0 512 512" height="512" viewBox="0 0 512 512" width="512" xmlns="http://www.w3.org/2000/svg"><g><g><g clip-rule="evenodd" fill-rule="evenodd"><path d="m207.785 233.5v-196c0-16.498-13.5-30-30-30s-30 13.5-30 30v234.954l29.215-38.954z" fill="#fbf2e2"/><path d="m207.785 233.5v-22.5h-37.5v-173.5c0-12.527 7.782-23.322 18.75-27.796-19.441-7.931-41.249 6.429-41.249 27.796v234.954l29.214-38.954z" fill="#f7e0ba"/><path d="m177 233.5-44.999 59.999-7.5 82.499 59.999 60.001v68.5h180.786v-68.5l22.499-67.501v-119.999c0 16.501-13.5 30-30 30s-30-13.5-30-30v-15c0 16.501-13.5 30-30 30s-30-13.5-30-30h-90.785z" fill="#fbf2e2"/><path d="m207.785 180.999v52.5h60v-52.5c0-16.501-13.5-30-30-30s-30 13.5-30 30z" fill="#fbf2e2"/><path d="m267.785 188.499v45c0 16.5 13.5 30 30 30 16.501 0 30-13.499 30-30v-45c0-16.5-13.5-30-30-30s-30 13.5-30 30z" fill="#fbf2e2"/><path d="m327.785 203.499v45c0 16.5 13.5 30 30 30s30-13.499 30-30v-45c0-16.498-13.5-30-30-30s-30 13.5-30 30z" fill="#fbf2e2"/><path d="m132.001 293.499-7.5 82.499 59.999 60.001v68.501h22.5v-64.766l13.408 2.224-73.407-73.46 12.612-111.815z" fill="#f7e0ba"/><path d="m207.785 180.999v52.5h60v-22.499h-37.5v-30c0-12.527 7.783-23.323 18.75-27.797-19.442-7.93-41.25 6.428-41.25 27.796z" fill="#f7e0ba"/><path d="m267.785 188.499v45c0 21.368 21.807 35.726 41.25 27.797-10.968-4.474-18.75-15.27-18.75-27.797v-45c0-12.527 7.783-23.323 18.75-27.796-19.441-7.931-41.25 6.429-41.25 27.796z" fill="#f7e0ba"/><path d="m327.785 203.499v45c0 21.368 21.807 35.726 41.25 27.796-10.968-4.473-18.75-15.269-18.75-27.796v-45c0-12.527 7.782-23.323 18.75-27.796-19.442-7.932-41.25 6.429-41.25 27.796z" fill="#f7e0ba"/><path d="m235.137 298.58c27.983 10.912 47.947 38.196 47.947 69.92h22.5c0-29.359-13.117-55.774-33.786-73.68 3.362-3.555 6.343-7.474 8.878-11.689 5.366 1.858 11.123 2.869 17.108 2.869 6.977 0 13.643-1.372 19.743-3.861 9.643 11.517 24.119 18.861 40.258 18.861 11.141 0 21.487-3.502 30-9.458v-43.041c0 16.501-13.5 30-30 30s-30-13.5-30-30v-15c0 16.501-13.5 30-30 30-16.135 0-30-13.177-30-30v15c0 24.742-20.258 45-45 45h-14.701l-7.372 29.487 22.372 5.593 7.5-30h4.553z" fill="#f7e0ba"/></g><g><path d="m365.286 360.998h-15v-15h15zm0-30h-15v-15h15z" fill="#fff"/></g></g><g><path d="m395.285 203.499c0-20.678-16.822-37.5-37.5-37.5-9.521 0-18.225 3.567-24.845 9.434-1.857-4.976-4.784-9.545-8.664-13.425-7.1-7.1-16.508-11.009-26.491-11.009-9.983 0-19.391 3.91-26.49 11.009-.251.251-.5.507-.744.765-6.416-11.489-18.699-19.273-32.766-19.273-8.436 0-16.228 2.801-22.5 7.52v-113.52c0-20.677-16.822-37.5-37.5-37.5s-37.5 16.822-37.5 37.5v22.5h15v-22.5c0-12.406 10.093-22.5 22.5-22.5s22.5 10.093 22.5 22.5v188.5h-27.035l-17.965 23.954v-174.955h-15v194.954l-15.561 20.747-8.01 88.116 60.286 60.29v72.894h75.393v-15h-60.393v-52.153l51.665 8.574 2.456-14.798-58.02-9.628-55.813-55.816 6.99-76.882 41.472-55.297h79.535v7.5c0 9.963-3.915 19.365-11.024 26.475s-16.512 11.025-26.476 11.025h-20.557l-8.792 35.168 14.553 3.638 5.885-23.541c34.517 2.948 61.71 31.967 61.71 67.235h15c0-31.709-17.992-59.28-44.294-73.085 4.948-2.498 9.533-5.789 13.577-9.833 6.642-6.642 11.29-14.723 13.644-23.52 6.546 5.572 15.024 8.938 24.274 8.938 9.522 0 18.227-3.567 24.848-9.436 5.315 14.255 19.068 24.436 35.153 24.436 8.435 0 16.229-2.8 22.5-7.518v88.8l-20.686 62.058-55.935 9.282 2.456 14.798 51.665-8.573v52.153h-60.393v15h75.393v-74.783l22.5-67.501v-166.217zm-135 22.501h-45v-45c0-12.407 10.093-22.5 22.5-22.5s22.5 10.093 22.5 22.5zm60 7.5c0 12.406-10.094 22.5-22.5 22.5s-22.5-10.094-22.5-22.5v-45c0-5.977 2.35-11.618 6.616-15.884s9.907-6.616 15.884-6.616 11.618 2.349 15.885 6.616c4.266 4.266 6.616 9.907 6.616 15.884v45zm60 15c0 12.406-10.094 22.5-22.5 22.5-12.407 0-22.5-10.093-22.5-22.5v-45c0-12.407 10.093-22.5 22.5-22.5 12.406 0 22.5 10.093 22.5 22.5z"/><path d="m267.393 497h15v15h-15z"/></g></g></svg>