<svg id="Capa_1" enable-background="new 0 0 512.004 512.004" height="512" viewBox="0 0 512.004 512.004" width="512" xmlns="http://www.w3.org/2000/svg"><g><g><g clip-rule="evenodd" fill-rule="evenodd"><path d="m276.514 233.503v15c0 1.701-.101 3.372-.288 5.054 3.176 10.302 11.809 18.598 23.085 20.737 16.211 3.075 31.991-7.671 35.066-23.883 3.574-18.841 7.148-37.683 10.723-56.524 3.075-16.211-7.672-31.991-23.883-35.066-16.18-3.069-31.929 7.631-35.048 23.789z" fill="#fbf2e2"/><path d="m342.304 208.624-7.927 41.787c-3.075 16.211 7.671 31.991 23.882 35.066s31.992-7.673 35.066-23.883l7.927-41.787c3.075-16.211-7.672-31.991-23.883-35.066-16.177-3.068-32.026 7.678-35.065 23.883z" fill="#fbf2e2"/><path d="m358.26 285.477c-16.211-3.075-26.958-18.855-23.882-35.066-3.076 16.211-18.855 26.958-35.066 23.883-11.276-2.139-19.906-10.426-23.082-20.728.211-1.036.285-4.432.285-5.062v-15h-92.153l-44.999 59.999-7.5 82.499 59.999 60.001v68.5h180.786v-68.5l22.499-67.501v-116.503l-1.82 9.595c-3.076 16.21-18.856 26.958-35.067 23.883z" fill="#fbf2e2"/><path d="m276.229 253.566c-2.72 22.962-21.855 39.938-44.715 39.938h-16.069l-7.5 30 22.372 5.593 7.5-30 4.553-.562c28.051 10.877 48.075 38.197 48.075 69.969h22.5c0-29.014-12.811-55.153-33.061-73.046.967-.996 1.904-2.021 2.809-3.075 3.905 1.829 8.07 3.191 12.425 4.017 10.942 2.075 21.762.563 31.237-3.705 7.255 7.442 16.769 12.812 27.711 14.887 14.964 2.839 29.698-1.036 41.08-9.489v-46.094l-1.82 9.595c-3.075 16.211-18.855 26.958-35.066 23.883s-26.958-18.855-23.882-35.066c-3.076 16.211-18.855 26.958-35.066 23.883-10.875-2.063-19.786-10.032-23.083-20.728z" fill="#f7e0ba"/><path d="m276.514 233.504c12.04-63.47 24.082-126.939 36.122-190.409 3.075-16.211-7.672-31.99-23.883-35.065s-31.911 7.691-35.066 23.882l-32.997 171.592h-18.437l-32.553-171.592c-3.075-16.206-18.855-26.957-35.066-23.882s-26.958 18.855-23.883 35.065l43.691 230.301 29.919-39.892z" fill="#fbf2e2"/><path d="m276.514 233.504 4.269-22.5h-38.911l34.316-179.092c2.016-10.346 9.155-18.476 18.275-22.196-1.811-.738-3.718-1.308-5.709-1.686-16.211-3.075-31.911 7.691-35.066 23.882l-34.316 179.092h-42.51l-9.666 11.017-33.945-178.926c-2.698-14.225 5.248-28.118 18.189-33.385-21.63-8.793-45.141 9.915-40.689 33.385l43.691 230.301 29.919-39.892z" fill="#f7e0ba"/><path d="m276.514 233.503v15c0 1.701-.101 3.372-.288 5.054 5.205 16.885 23.636 25.665 39.892 19.057-8.453-3.442-14.775-10.568-17.392-19.057.187-1.682.288-3.353.288-5.054v-15l9.655-50.894c1.991-10.315 9.13-18.405 18.242-22.109-1.806-.735-3.709-1.303-5.694-1.68-16.18-3.069-31.929 7.631-35.048 23.789z" fill="#f7e0ba"/><path d="m342.304 208.624-7.927 41.787c-4.453 23.472 19.058 42.178 40.689 33.386-12.942-5.267-20.888-19.16-18.189-33.386l7.927-41.787c1.942-10.357 9.117-18.484 18.266-22.2-17.366-7.072-37.276 3.588-40.766 22.2z" fill="#f7e0ba"/><path d="m139.362 293.503-7.5 82.499 59.999 60.001v68.501h22.5v-64.767l13.407 2.225-73.406-73.46 12.396-111.527z" fill="#f7e0ba"/></g><g><path d="m372.646 361.002h-15v-15h15zm0-30h-15v-15h15z" fill="#fff"/></g></g><g><path d="m378.767 177.373c-9.359-1.776-18.572.108-26.17 4.64-2.565-14.996-14.18-27.562-29.983-30.56-8.288-1.573-16.466-.273-23.507 3.194l20.897-110.154c1.861-9.809-.227-19.78-5.878-28.079-5.651-8.298-14.166-13.893-23.974-15.754-20.216-3.834-39.875 9.542-43.83 29.834l-31.828 165.509h-6.03l-31.395-165.49c-3.854-20.315-23.52-33.705-43.833-29.853-20.314 3.854-33.707 23.517-29.854 43.832l2.869 15.121 14.737-2.796-2.869-15.12c-2.312-12.189 5.723-23.987 17.912-26.299 12.189-2.31 23.987 5.723 26.3 17.912l33.71 177.694h30.843l34.165-177.658c2.377-12.198 14.177-20.25 26.307-17.948 5.872 1.114 10.976 4.474 14.373 9.46 3.396 4.987 4.653 10.967 3.539 16.839l-34.965 184.307h-89.692l-21.969 29.292-34.858-183.742-14.737 2.796 37.41 197.193-14.371 19.162-8.011 88.116 60.286 60.288v72.894h75.393v-15h-60.393v-52.153l51.665 8.573 2.456-14.798-58.019-9.627-55.814-55.816 6.989-76.882 41.473-55.297h80.903v7.5c0 20.678-16.822 37.5-37.5 37.5h-21.925l-8.92 35.681 14.552 3.638 6.013-24.053c34.517 2.948 61.71 31.967 61.71 67.234h15c0-31.432-17.674-58.807-43.602-72.73 10.558-5.12 19.148-13.676 24.319-24.205 5.189 5.106 11.828 8.686 19.251 10.094 12.039 2.283 23.856-1.493 32.283-9.178.781 1.583 1.679 3.122 2.69 4.607 5.652 8.298 14.167 13.893 23.975 15.753 2.338.443 4.686.663 7.018.663 7.45 0 14.742-2.237 21.062-6.542.938-.639 1.837-1.32 2.705-2.03v82.348l-20.686 62.06-55.934 9.282 2.455 14.798 51.665-8.573v52.153h-60.393v15h75.393v-74.783l22.5-67.501v-117.013l5.976-31.501c3.854-20.316-9.539-39.979-29.854-43.832zm-41.036 15.117-2.768 14.591c-.009.048-.019.097-.028.146l-7.927 41.787c0 .003-.001.006-.002.01-2.316 12.184-14.111 20.216-26.298 17.902-7.758-1.472-14.11-6.897-16.873-14.296.107-1.363.177-2.736.177-4.126v-14.295l9.506-50.106c2.313-12.189 14.108-20.226 26.299-17.913 12.191 2.312 20.227 14.111 17.914 26.3zm38.766 82.079c-4.987 3.396-10.966 4.652-16.84 3.54-5.872-1.114-10.976-4.473-14.372-9.46-3.396-4.986-4.653-10.967-3.539-16.839l7.948-41.899c2.362-12.126 14.123-20.108 26.277-17.8 12.189 2.312 20.225 14.11 17.913 26.299l-7.927 41.787c-1.113 5.871-4.473 10.975-9.46 14.372z"/><path d="m274.754 497.004h15v15h-15z"/></g></g></svg>