<svg id="Capa_1" enable-background="new 0 0 512 512" height="512" viewBox="0 0 512 512" width="512" xmlns="http://www.w3.org/2000/svg"><g><g><g clip-rule="evenodd" fill-rule="evenodd"><path d="m114.512 65.736 42.026 215.688 65.895-47.924h96.668l21.265-50.836c1.935-4.624 4.912-8.512 8.546-11.503l19.52-103.234c3.065-16.209-7.673-31.992-23.883-35.065-16.209-3.074-31.951 7.684-35.066 23.882l-28.222 146.756h-8.995v-166c0-16.5-13.5-30-30-30s-30 13.5-30 30v166h-9.441l-29.364-148.947c-3.19-16.183-18.855-26.957-35.066-23.882-16.211 3.074-27.038 18.869-23.883 35.065z" fill="#fbf2e2"/><path d="m222.433 233.5h96.668l9.412-22.5h-26.07l29.54-154.257c1.982-10.353 9.138-18.481 18.269-22.199-17.413-7.095-37.207 3.598-40.769 22.199l-29.541 154.257h-45.177v-173.5c0-12.527 7.783-23.323 18.75-27.797-19.441-7.931-41.25 6.43-41.25 27.797v166h-15.606v20.189l-25.43 17.659-34.217-175.612c-2.768-14.205 5.222-28.101 18.165-33.377-21.57-8.81-45.23 9.948-40.665 33.377l42.026 215.688z" fill="#f7e0ba"/><path d="m222.433 233.5-82.499 59.999-7.5 82.499 59.999 60.001v68.5h180.786v-68.5l22.5-67.501v-162.68l-25.096 59.995c-6.367 15.221-24.032 22.466-39.254 16.099-7.408-3.099-12.926-8.874-15.906-15.741 2.34-5.433 3.639-11.408 3.639-17.671v-15z" fill="#fbf2e2"/><path d="m288.358 360.969h22.5c0-17.633-4.792-34.529-13.38-49.172 7.3-2.711 14.065-6.665 20-11.653 27.011 14.99 61.936 2.954 73.901-25.649l4.339-10.373v-58.305l-25.096 59.995c-6.323 15.115-23.452 22.159-38.641 16.346-7.475-2.99-13.309-8.591-16.52-15.988-6.906 16.028-22.884 27.329-41.361 27.329h-28.084l-37.499 45 17.83 14.829 30.208-37.328h16.722c9.458 12.551 15.081 28.135 15.081 44.969z" fill="#f7e0ba"/><path d="m340.366 182.663-21.265 50.837v15c0 6.263-1.298 12.238-3.639 17.671 2.98 6.867 8.498 12.642 15.906 15.741 15.222 6.367 32.887-.878 39.254-16.099l25.096-59.995c6.367-15.221-.877-32.887-16.099-39.254-15.259-6.382-32.929.983-39.253 16.099z" fill="#fbf2e2"/><path d="m340.366 182.663-21.265 50.837v15c0 6.263-1.298 12.238-3.639 17.671 6.491 14.955 23.562 21.951 38.685 15.854-7.289-2.956-13.057-8.645-16.186-15.854 2.341-5.433 3.639-11.408 3.639-17.671v-15l21.265-50.836c3.195-7.637 9.287-13.294 16.501-16.201-15.201-6.198-32.711 1.168-39 16.2z" fill="#f7e0ba"/><path d="m164.065 275.949-24.131 17.55-7.5 82.499 59.999 60.001v68.501h22.5v-64.767l13.456 2.233-73.455-73.468z" fill="#f7e0ba"/></g><g><path d="m373.218 360.998h-15v-15h15zm0-30h-15v-15h15z" fill="#fff"/></g></g><g><path d="m403.218 207.222c3.258-8.81 3.091-18.405-.515-27.197-3.81-9.29-10.979-16.527-20.189-20.38-7.712-3.227-15.903-3.671-23.453-1.798l16.74-88.528c3.841-20.316-9.552-39.977-29.854-43.827-20.269-3.843-39.926 9.541-43.829 29.834l-22.352 116.231v-134.057c0-20.678-16.822-37.5-37.5-37.5s-37.5 16.822-37.5 37.5v137.066l-23.946-121.464c-3.994-20.258-23.654-33.627-43.822-29.8-9.862 1.871-18.411 7.502-24.073 15.859-5.625 8.302-7.675 18.249-5.774 28.01l2.95 15.136 14.723-2.869-2.949-15.135c-1.132-5.813.1-11.754 3.469-16.728 3.406-5.027 8.538-8.414 14.45-9.535 12.104-2.299 23.905 5.763 26.31 17.964l30.555 154.996h23.106v-173.5c0-12.407 10.093-22.5 22.5-22.5s22.5 10.093 22.5 22.5v173.5h22.69l29.392-152.84c2.345-12.192 14.146-20.236 26.304-17.93 12.182 2.31 20.216 14.11 17.911 26.303l-19.044 100.716c-3.581 3.444-6.535 7.652-8.571 12.52l-19.339 46.231h-94.115l-58.345 42.433-33.956-174.273-14.724 2.869 35.294 181.139-15.49 11.266-8.125 89.384 60.286 60.288v72.894h75.393v-15h-60.393v-52.153l51.666 8.573 2.455-14.798-58.019-9.627-55.813-55.816 6.874-75.614 77.775-56.565h86.729v7.5c0 20.678-16.822 37.5-37.5 37.5h-31.597l-39.749 47.698 11.523 9.603 33.562-40.274c20.226 12.139 33.018 34.286 33.018 57.943h15c0-22.857-9.76-44.554-26.042-59.969h4.284c17.047 0 32.216-8.172 41.813-20.798 3.514 3.675 7.763 6.622 12.56 8.629 4.715 1.972 9.605 2.905 14.422 2.905 14.674-.001 28.638-8.667 34.646-23.029l10.677-25.524v124.098l-20.686 62.059-55.935 9.282 2.455 14.798 51.666-8.573v52.152h-60.393v15h75.393v-74.782l22.499-67.503v-162.493zm-39.515 55.696c-4.789 11.446-17.993 16.861-29.44 12.074-4.466-1.868-8.133-5.108-10.587-9.245 1.886-5.406 2.925-11.206 2.925-17.247v-13.495l20.685-49.447c4.787-11.444 17.994-16.861 29.439-12.074 5.514 2.307 9.812 6.651 12.101 12.233s2.28 11.693-.026 17.208z"/><path d="m275.325 497h15.001v15h-15.001z"/></g></g></svg>