<svg id="Capa_1" enable-background="new 0 0 512 512" height="512" viewBox="0 0 512 512" width="512" xmlns="http://www.w3.org/2000/svg"><g><g><g clip-rule="evenodd" fill-rule="evenodd"><path d="m132.001 164.999-7.5 82.499 59.999 60.002v197h180.786v-197l22.499-67.501v-119.999c0 16.5-13.5 30-30 30s-30-13.5-30-30v-15c0 16.5-13.5 30-30 30s-30-13.501-30-30h-90.785z" fill="#fbf2e2"/><path d="m147.785 143.954 29.215-38.954h30.785v-67.5c0-16.498-13.5-30-30-30s-30 13.5-30 30z" fill="#fbf2e2"/><path d="m207.785 37.5v67.5h60v-67.5c0-16.5-13.5-30-30-30s-30 13.5-30 30z" fill="#fbf2e2"/><path d="m267.785 45v60c0 16.499 13.5 30 30 30s30-13.499 30-30v-60c0-16.5-13.5-30-30-30s-30 13.5-30 30z" fill="#fbf2e2"/><path d="m327.785 60v60c0 16.5 13.5 30 30 30s30-13.5 30-30v-60c0-16.497-13.5-30-30-30s-30 13.5-30 30z" fill="#fbf2e2"/><path d="m132.001 164.999-7.5 82.499 59.999 60.002v197h22.5v-193.266l13.408 2.224-73.407-73.46 12.612-111.814z" fill="#f7e0ba"/><path d="m235.138 170.08c27.983 10.912 47.947 38.196 47.947 69.92h22.5c0-29.359-13.117-55.774-33.786-73.68 3.362-3.555 6.343-7.474 8.878-11.689 5.366 1.858 11.123 2.869 17.109 2.869 6.977 0 13.643-1.372 19.742-3.861 9.643 11.517 24.119 18.861 40.258 18.861 11.141 0 21.487-3.502 30-9.458v-43.042c0 16.501-13.5 30-30 30s-30-13.5-30-30v-15c0 16.5-13.5 30-30 30-16.135 0-30-13.177-30-30v15c0 24.742-20.258 45-45 45h-14.701l-7.372 29.487 22.372 5.593 7.5-30z" fill="#f7e0ba"/><path d="m267.785 45v60c0 21.367 21.808 35.727 41.25 27.796-10.968-4.474-18.75-15.27-18.75-27.796v-60c0-12.527 7.783-23.323 18.75-27.796-19.441-7.931-41.25 6.429-41.25 27.796z" fill="#f7e0ba"/><path d="m327.785 60v60c0 21.367 21.808 35.727 41.25 27.797-10.968-4.473-18.75-15.269-18.75-27.797v-60c0-12.527 7.782-23.322 18.75-27.796-19.443-7.93-41.25 6.428-41.25 27.796z" fill="#f7e0ba"/><path d="m207.785 37.5v67.5h60v-22.5h-37.5v-45c0-12.526 7.783-23.322 18.751-27.796-19.442-7.931-41.251 6.428-41.251 27.796z" fill="#f7e0ba"/><path d="m147.785 143.954 29.215-38.954h30.785v-22.5h-37.5v-45c0-12.525 7.782-23.321 18.75-27.796-19.442-7.931-41.25 6.428-41.25 27.796z" fill="#f7e0ba"/></g><g><path d="m365.286 232.499h-15v-15h15zm0-30h-15v-15h15z" fill="#fff"/></g></g><g><path d="m395.286 60c0-20.678-16.823-37.5-37.501-37.5-9.522 0-18.227 3.567-24.847 9.436-5.315-14.255-19.068-24.436-35.153-24.436-10.72 0-20.403 4.521-27.244 11.757-6.419-11.478-18.697-19.257-32.756-19.257-12.254 0-23.153 5.909-30 15.026-6.847-9.117-17.746-15.026-30-15.026-20.678 0-37.5 16.822-37.5 37.5v14.999h15v-14.999c0-12.406 10.094-22.5 22.5-22.5s22.5 10.093 22.5 22.5v60h-27.034l-17.966 23.954v-53.953h-15v73.953l-15.561 20.747-8.011 88.116 60.287 60.289v201.394h75.394v-15h-60.394v-180.653l51.666 8.573 2.455-14.798-58.02-9.627-55.813-55.816 6.989-76.882 41.474-55.297h79.534v7.5c0 20.677-16.822 37.5-37.499 37.5h-20.557l-8.793 35.168 14.553 3.638 5.885-23.542c34.518 2.948 61.711 31.967 61.711 67.235h15c0-31.702-17.985-59.268-44.277-73.076 13.242-6.665 23.297-18.769 27.202-33.363 6.547 5.573 15.024 8.939 24.275 8.939 9.522 0 18.227-3.567 24.847-9.436 5.315 14.255 19.068 24.436 35.153 24.436 8.436 0 16.229-2.799 22.501-7.518v88.8l-20.687 62.059-55.934 9.282 2.455 14.798 51.665-8.573v180.653h-60.393v15h75.393v-203.281l22.5-67.503v-181.216zm-135.001 37.5h-45v-60c0-12.407 10.094-22.5 22.5-22.5s22.5 10.093 22.5 22.5zm60 7.5c0 12.406-10.094 22.5-22.5 22.5s-22.5-10.094-22.5-22.5v-60c0-12.407 10.094-22.5 22.5-22.5s22.5 10.093 22.5 22.5zm60.001 15c0 12.406-10.094 22.5-22.501 22.5-12.406 0-22.5-10.094-22.5-22.5v-60c0-12.407 10.094-22.5 22.5-22.5 12.407 0 22.501 10.093 22.501 22.5z"/><path d="m267.393 497h15v15h-15z"/></g></g></svg>