<svg id="Capa_1" enable-background="new 0 0 512 512" height="512" viewBox="0 0 512 512" width="512" xmlns="http://www.w3.org/2000/svg"><g><g><g clip-rule="evenodd" fill-rule="evenodd"><path d="m147.785 37.5v234.954l29.215-38.954h30.785v-196c0-16.498-13.5-30-30-30s-30 13.5-30 30z" fill="#fbf2e2"/><path d="m237.785 151c-16.5 0-30 13.5-30 30v52.5h60v-52.5c0-16.501-13.499-30-30-30z" fill="#fbf2e2"/><path d="m297.785 158.499c-16.5 0-30 13.5-30 30v45h15v15c0 3.515-.409 6.94-1.182 10.228 4.676 3.017 10.234 4.771 16.182 4.771 16.5 0 30-13.499 30-30 0-5.399 0-23.431 0-45 .001-16.499-13.499-29.999-30-29.999z" fill="#fbf2e2"/><path d="m267.785 233.5h15v15c0 3.515-.409 6.94-1.182 10.228 4.676 3.017 10.234 4.771 16.182 4.771 2.034 0 4.021-.206 5.944-.596 1.016-4.644 1.556-9.462 1.556-14.403v-37.5h-15v-22.501c0-12.527 7.783-23.323 18.75-27.797-3.479-1.419-7.277-2.203-11.25-2.203-16.5 0-30 13.5-30 30z" fill="#f7e0ba"/><path d="m327.786 233.5c0 16.501-13.5 30-30 30-5.948 0-11.506-1.755-16.182-4.771.773-3.288 1.182-6.713 1.182-10.228v-15h-105.785l-44.999 59.999-7.5 82.499 59.999 60.001v68.5h180.786v-68.5l22.499-67.501v-277.498c0-16.496-13.5-30-30-30s-30 13.5-30 30z" fill="#fbf2e2"/><path d="m147.785 37.5v234.954l29.215-38.954h30.785v-22.5h-37.5v-173.5c0-12.526 7.783-23.322 18.75-27.796-3.479-1.419-7.277-2.204-11.25-2.204-16.5 0-30 13.5-30 30z" fill="#f7e0ba"/><path d="m350.285 233.5v-142.499c0-12.527 7.782-23.323 18.75-27.796-19.442-7.93-41.249 6.429-41.249 27.796v142.499c0 14.466-10.377 26.625-24.055 29.403-7.928 1.399-15.224.174-22.127-4.175-4.65 19.862-22.549 34.771-43.818 34.771h-29.701l-7.5 30 22.372 5.593 7.5-30 4.553-.562c28.051 10.877 48.075 38.197 48.075 69.969h22.5c0-25.739-10.082-49.215-26.495-66.679 5.724-4.448 10.718-9.794 14.767-15.823 29.91 2.716 56.428-20.205 56.428-52.497zm-218.284 59.999 27.612-36.816-12.612 111.815 73.407 73.46-13.408-2.224v64.766h-22.5v-68.5l-59.999-60.001z" fill="#f7e0ba"/><path d="m207.785 180.999v52.5h60v-22.499h-37.5v-30.001c0-12.527 7.783-23.323 18.75-27.796-19.442-7.929-41.25 6.428-41.25 27.796z" fill="#f7e0ba"/></g><g><path d="m365.286 315.999h-15v-15h15zm0-30h-15v-15h15z" fill="#fff"/></g></g><g><path d="m395.286 91c0-20.677-16.823-37.5-37.501-37.5s-37.5 16.822-37.5 37.5v67.517c-6.271-4.718-14.065-7.518-22.5-7.518-10.72 0-20.403 4.521-27.244 11.757-6.419-11.478-18.696-19.257-32.756-19.257-8.436 0-16.228 2.801-22.5 7.52v-113.519c0-20.678-16.822-37.5-37.5-37.5s-37.5 16.822-37.5 37.5v22.5h15v-22.5c0-12.407 10.094-22.5 22.5-22.5s22.5 10.093 22.5 22.5v188.5h-27.034l-17.966 23.954v-174.954h-15v194.954l-15.561 20.747-8.011 88.116 60.287 60.289v72.894h75.394v-15h-60.394v-52.153l51.666 8.573 2.455-14.798-58.02-9.627-55.813-55.816 6.989-76.882 41.474-55.297h94.534v7.5c0 20.678-16.822 37.5-37.5 37.5h-35.706l-8.777 35.709 14.566 3.58 5.907-24.032c34.564 2.901 61.809 31.941 61.809 67.242h15c0-29.208-15.271-54.9-38.234-69.564 15.186-4.392 27.565-15.464 33.717-29.821 3.759 1.244 7.708 1.885 11.717 1.885 20.678 0 37.5-16.822 37.5-37.5v-142.499c0-12.406 10.094-22.5 22.5-22.5 12.407 0 22.501 10.093 22.501 22.5v276.28l-20.685 62.06-55.934 9.282 2.455 14.798 51.665-8.573v52.153h-60.393v15h75.393v-74.782l22.5-67.503zm-135.001 135h-45v-45c0-12.407 10.094-22.5 22.5-22.5s22.5 10.093 22.5 22.5zm60 7.5c0 12.407-10.094 22.5-22.5 22.5-2.697 0-5.352-.486-7.85-1.425.231-1.994.35-4.02.35-6.075v-22.5h-15v-37.5c0-12.407 10.094-22.5 22.5-22.5s22.5 10.093 22.5 22.5z"/><path d="m267.394 497h15v15h-15z"/></g></g></svg>