<svg id="Capa_1" enable-background="new 0 0 512.012 512.012" height="512" viewBox="0 0 512.012 512.012" width="512" xmlns="http://www.w3.org/2000/svg"><g><g clip-rule="evenodd" fill-rule="evenodd"><path d="m242.887 111.759 13.241-38.271c5.393-15.589-2.949-32.765-18.542-38.16-15.562-5.384-32.761 2.938-38.16 18.542l-51.772 149.642v64.712l26.034-34.712h93.576l6.284-33.129z" fill="#fbf2e2"/><path d="m242.887 111.759-31.745 91.753v7.5h-40.989v-7.5l51.772-149.642c2.941-8.5 9.384-14.839 17.157-17.979-.491-.2-.99-.388-1.497-.564-15.562-5.384-32.761 2.938-38.16 18.542l-51.772 149.642v64.712l26.034-34.712h93.576l4.268-22.5h-37.89v-7.5l20.495-59.237z" fill="#f7e0ba"/><path d="m179.398 111.759 20.028-57.888c2.947-8.517 9.407-14.871 17.204-18.005l-2.826-8.169c-5.395-15.593-22.566-23.938-38.16-18.542-15.593 5.395-23.936 22.57-18.542 38.16z" fill="#fbf2e2"/><path d="m179.398 111.759 20.028-57.888c2.947-8.517 9.407-14.871 17.204-18.005l-2.826-8.169c-1.606-4.642-4.256-8.641-7.596-11.826-12.714 5.742-23.144 16.479-28.045 30.643l-10.669 30.838z" fill="#f7e0ba"/><path d="m173.687 233.512-44.999 59.999-7.5 82.499 59.999 60.001v68.5h180.786v-68.5l22.499-67.501v-109.003l-1.82 9.595c-3.075 16.211-18.855 26.958-35.066 23.883s-26.958-18.855-23.882-35.066c-3.075 16.211-18.855 26.958-35.066 23.883-6.085-1.154-11.404-4.102-15.507-8.188 4.863-7.184 7.709-15.828 7.709-25.103v-15h-107.153z" fill="#fbf2e2"/><path d="m267.263 233.512h13.577v15c0 9.275-2.847 17.919-7.709 25.103 4.103 4.086 9.422 7.034 15.507 8.188 16.21 3.075 31.99-7.672 35.066-23.883 3.574-18.841 7.148-37.683 10.723-56.524 3.075-16.211-7.672-31.991-23.883-35.066s-31.99 7.672-35.066 23.883z" fill="#fbf2e2"/><path d="m331.631 216.133-7.927 41.787c-3.075 16.211 7.671 31.991 23.882 35.066s31.991-7.672 35.066-23.883l7.927-41.787c3.075-16.211-7.672-31.991-23.883-35.066-16.178-3.069-32.027 7.677-35.065 23.883z" fill="#fbf2e2"/><g fill="#f7e0ba"><path d="m128.688 293.511-7.5 82.499 59.999 60.002v68.5h22.5v-64.767l13.408 2.225-73.407-73.46 12.396-111.527z"/><path d="m273.131 273.615c-9.941 15.262-25.627 19.897-38.193 19.897h-31.069l-7.5 30 22.372 5.593 7.5-30 4.553-.562c28.051 10.877 48.075 38.197 48.075 69.969h22.5c0-26.313-10.537-50.262-27.604-67.839 3.415 1.448 6.992 2.536 10.681 3.236 10.941 2.075 21.761.562 31.236-3.705 7.254 7.442 16.769 12.812 27.711 14.888 14.964 2.839 29.698-1.036 41.08-9.489v-46.094l-1.82 9.595c-3.075 16.211-18.855 26.958-35.066 23.883s-26.958-18.855-23.882-35.066c-3.075 16.211-18.855 26.958-35.066 23.883-5.886-1.116-11.265-3.967-15.508-8.189z"/><path d="m267.263 233.512h13.577v15c0 9.275-2.847 17.919-7.709 25.103 5.657 5.632 13.275 8.754 21.239 8.71 5.708-9.865 8.97-21.376 8.97-33.813v-37.5h-9.309l3.946-20.799c1.965-10.36 9.12-18.488 18.259-22.203-17.399-7.082-37.228 3.588-40.759 22.203z"/><path d="m331.631 216.133-7.927 41.787c-4.453 23.471 19.058 42.178 40.689 33.386-12.942-5.267-20.888-19.16-18.189-33.386l7.927-41.787c1.942-10.357 9.117-18.484 18.266-22.2-17.366-7.073-37.276 3.588-40.766 22.2z"/></g></g><g><path d="m361.973 360.697h-15v-15h15zm0-30h-15v-15h15z" fill="#fff"/></g><g><path d="m264.081 497.012h15v15h-15z"/><path d="m392.069 200.635c-5.652-8.298-14.167-13.893-23.975-15.754-9.355-1.774-18.571.108-26.17 4.64-2.565-14.996-14.18-27.562-29.983-30.561-15.659-2.97-30.925 4.314-38.867 17.111l-22.25-64.313 12.393-35.819c6.76-19.542-3.637-40.939-23.178-47.7-6.199-2.145-12.584-2.557-18.63-1.505l-.516-1.49c-3.265-9.435-10.035-17.047-19.065-21.436-9.031-4.388-19.199-5.007-28.634-1.743-19.541 6.761-29.939 28.159-23.178 47.7l21.448 61.992-11.684 33.771 14.176 4.904 32.56-94.111c4.056-11.725 16.896-17.962 28.62-13.907 11.725 4.056 17.963 16.895 13.907 28.62l-43.239 124.976h-15.055v15h45v-15h-14.073l21.214-61.314 22.92 66.25-4.755 25.064h-91.115l-14.784 19.712v-40.952l13.896-40.163-14.176-4.904-14.72 42.545v63.473l-18.741 24.989-8.011 88.116 60.286 60.289v72.893h75.393v-15h-60.393v-52.153l51.665 8.573 2.456-14.798-58.019-9.627-55.813-55.816 6.989-76.882 41.473-55.297h95.903v7.5c0 20.677-16.822 37.5-37.5 37.5h-36.925l-8.92 35.681 14.553 3.638 6.013-24.054c34.517 2.948 61.71 31.967 61.71 67.235h15c0-29.033-15.088-54.592-37.821-69.299 9.696-2.605 18.289-7.921 24.917-15.086 3.916 2.458 8.266 4.171 12.873 5.045 12.045 2.284 23.856-1.491 32.283-9.178.781 1.583 1.679 3.122 2.69 4.607 5.651 8.298 14.166 13.893 23.975 15.754 2.338.443 4.686.663 7.018.663 7.45 0 14.741-2.237 21.062-6.542.938-.639 1.837-1.32 2.705-2.03v74.848l-20.686 62.06-55.935 9.282 2.455 14.798 51.666-8.573v52.153h-60.393v15h75.393v-74.783l22.5-67.501v-109.514l5.975-31.498c1.857-9.809-.231-19.781-5.883-28.079zm-199.731-149.217-12.94 37.401-15.208-43.958c-4.056-11.725 2.182-24.563 13.907-28.62 11.725-4.056 24.563 2.182 28.62 13.907l.713 2.061c-6.803 4.388-12.247 10.984-15.092 19.209zm134.72 148.58-2.771 14.611c-.008.042-.017.084-.024.126l-7.927 41.787c-2.312 12.189-14.112 20.222-26.3 17.913-2.536-.481-4.937-1.401-7.132-2.69 3.474-7.009 5.437-14.894 5.437-23.231v-22.5h-12.02l6.526-34.401c2.313-12.189 14.11-20.229 26.299-17.913 12.188 2.31 20.224 14.109 17.912 26.298zm38.765 82.079c-4.987 3.396-10.968 4.653-16.839 3.54-5.873-1.114-10.977-4.474-14.373-9.46s-4.653-10.967-3.539-16.839l7.945-41.883c2.356-12.136 14.131-20.122 26.28-17.816 5.873 1.114 10.977 4.474 14.373 9.46s4.653 10.967 3.54 16.839l-7.927 41.787c-1.113 5.871-4.473 10.976-9.46 14.372z"/></g></g></svg>