<svg id="Capa_1" enable-background="new 0 0 512 512" height="512" viewBox="0 0 512 512" width="512" xmlns="http://www.w3.org/2000/svg"><g><g><g clip-rule="evenodd" fill-rule="evenodd"><path d="m147.8 149.998v94.742l44.215-49.742h15.785v-45c0-16.497-13.5-30-30-30s-30 13.501-30 30z" fill="#fbf2e2"/><path d="m147.8 244.741 44.215-49.742h15.785v-22.5h-25.889l-11.612 13.063v-35.564c0-12.527 7.782-23.322 18.75-27.796-19.442-7.93-41.249 6.43-41.249 27.796z" fill="#f7e0ba"/><path d="m207.8 194.999h60v-60c0-16.501-13.5-30-30-30s-30 13.5-30 30z" fill="#fbf2e2"/><path d="m207.8 194.999h60v-22.5h-37.5v-37.5c0-12.527 7.783-23.323 18.75-27.797-19.443-7.929-41.25 6.428-41.25 27.797z" fill="#f7e0ba"/><path d="m267.8 134.999v60h15v15c0 3.515-.409 6.939-1.181 10.228 4.676 3.017 10.234 4.772 16.182 4.772 16.5 0 30-13.5 30-30v-60c0-16.5-13.5-30-30-30-16.501 0-30.001 13.499-30.001 30z" fill="#fbf2e2"/><path d="m267.8 194.999h15v15c0 3.515-.409 6.939-1.181 10.228 4.676 3.017 10.234 4.772 16.182 4.772 2.034 0 4.022-.206 5.945-.597 1.017-4.644 1.555-9.463 1.555-14.403v-37.5h-15v-37.5c0-12.527 7.783-23.323 18.75-27.797-3.479-1.419-7.277-2.203-11.25-2.203-16.5 0-30 13.5-30 30v60z" fill="#f7e0ba"/><path d="m327.8 194.999c0 16.5-13.5 30-30 30-5.948 0-11.505-1.755-16.181-4.772.773-3.289 1.181-6.713 1.181-10.228v-15h-90.785l-59.999 67.499-7.5 74.999 59.999 60.001v107.002h180.785v-107.001l22.499-67.501v-292.498c0-16.496-13.5-30-30-30s-30 13.5-30 30v157.499z" fill="#fbf2e2"/><path d="m297.8 224.999c-5.948 0-11.506-1.755-16.182-4.771-6.169 19.561-21.533 34.167-42.657 34.755-5.25.12-10.6.017-15.861.017l-15 30 20.244 10.122 8.661-17.622c5.081 0 10.053-.573 14.853-1.656 11.208 13.115 17.997 30.105 17.997 48.604h22.5c0-21.055-6.83-40.992-18.712-57.302 4.805-1.966 15.878-12.149 20.229-19.648 29.911 2.716 56.429-20.205 56.429-52.498v-157.5c0-12.527 7.782-23.323 18.749-27.796-19.443-7.93-41.25 6.428-41.25 27.796v157.499c0 16.563-13.566 30-30 30zm-165.784 37.499 25.9-29.137-10.9 96.637 73.407 73.46-13.408-2.224v103.267h-22.5v-107.001l-59.999-60.001z" fill="#f7e0ba"/></g><g><path d="m365.301 277.498h-15v-15h15zm0-30h-15v-15h15z" fill="#fff"/></g></g><g><path d="m395.3 37.5c0-20.678-16.822-37.5-37.5-37.5s-37.5 16.822-37.5 37.5v67.517c-6.271-4.718-14.065-7.518-22.5-7.518-12.253 0-23.153 5.907-30 15.023-6.848-9.116-17.747-15.023-30-15.023-16.085 0-29.837 10.181-35.152 24.436-6.621-5.869-15.325-9.436-24.848-9.436-20.678 0-37.5 16.822-37.5 37.5v22.5h15v-22.5c0-12.406 10.093-22.5 22.5-22.5s22.5 10.093 22.5 22.5v37.5h-11.653l-33.347 37.516v-37.517h-15v54.392l-15.504 17.443-8.096 80.955 60.315 60.318v111.394h75.393v-15h-60.393v-90.654l51.665 8.573 2.456-14.798-58.019-9.627-55.784-55.787 6.904-69.043 56.146-63.165h79.917v7.5c0 20.678-16.822 37.5-37.5 37.5h-19.336l-17.073 34.146 13.417 6.708 11.726-23.454c21.964 11.698 35.82 34.381 35.82 59.547h15c0-24.77-10.975-47.565-29.251-62.969 17.118-3.421 31.26-15.186 37.979-30.864 3.759 1.244 7.708 1.885 11.717 1.885 20.678 0 37.5-16.822 37.5-37.5v-157.498c0-12.407 10.093-22.5 22.5-22.5s22.5 10.093 22.5 22.5v291.28l-20.686 62.059-55.934 9.282 2.455 14.798 51.665-8.573v90.654h-60.393v15h75.393v-113.284l22.5-67.501v-293.715zm-135 149.999h-45v-52.5c0-12.406 10.093-22.5 22.5-22.5s22.5 10.093 22.5 22.5zm60 7.5c0 12.406-10.093 22.5-22.5 22.5-2.698 0-5.352-.486-7.85-1.425.231-1.994.349-4.02.349-6.074v-22.5h-15v-52.5c0-12.406 10.093-22.5 22.5-22.5s22.5 10.093 22.5 22.5v59.999z"/><path d="m267.408 497h15v15h-15z"/></g></g></svg>