<svg id="Capa_1" enable-background="new 0 0 512.001 512.001" height="512" viewBox="0 0 512.001 512.001" width="512" xmlns="http://www.w3.org/2000/svg"><g><g><g clip-rule="evenodd" fill-rule="evenodd"><path d="m126.995 239.394 100.248 124.703v140.405h180.786v-140.405l22.499-82.501v-81.498l29.699-157.005c3.066-16.212-7.672-31.99-23.883-35.065s-31.951 7.684-35.066 23.882l-26.574 138.189v30.001c0 16.5-13.5 30-30 30s-30-13.5-30-30v15c0 16.5-13.5 30-30 30s-30-13.5-30-30c0 16.5-13.5 30-30 30-16.501 0-30-13.5-30-30l-68.508-51.173c-19.821-14.805-48.18-10.684-62.979 9.142l-8.973 12.021z" fill="#fbf2e2"/><path d="m194.704 215.098c0 16.5 13.5 30 30 30s30-13.5 30-30v-75c0-16.5-13.5-30-30-30-16.501 0-30 13.5-30 30z" fill="#fbf2e2"/><path d="m254.704 215.098c0 16.5 13.5 30 30 30s30-13.5 30-30v-82.5c0-16.501-13.5-30-30-30s-30 13.502-30 30z" fill="#fbf2e2"/><path d="m314.704 140.098v60c0 16.5 13.5 30 30 30s30-13.5 30-30v-60c0-16.5-13.5-30-30-30s-30 13.5-30 30z" fill="#fbf2e2"/><path d="m126.995 239.394 100.248 124.703v140.405h22.5v-147.905l-100.249-124.703-83.45-62.247c-4.15 4.546-8.082 10.459-11.801 15.441zm190.342 16.781c4.786 11.674 7.236 24.165 7.236 36.782h-22.5c0-9.444-1.77-18.495-4.993-26.838-14.576 3.544-30.058.641-42.376-7.977-8.513 5.955-18.86 9.454-30 9.454-28.919 0-52.5-23.581-52.5-52.5v-16.807l22.5 16.807c0 16.5 13.5 30 30 30s30-13.5 30-30c0 16.5 13.5 30 30 30s30-13.5 30-30v-15c0 16.5 13.5 30 30 30 17.01 0 30-14.031 30-30v-30.001l26.574-138.189c2.923-15.2 16.964-25.61 32.078-24.294-4.796 4.252-8.281 10.051-9.578 16.795l-26.574 138.189v37.5c0 28.919-23.581 52.5-52.5 52.5-6.977 0-13.643-1.372-19.742-3.861-2.285 2.729-4.84 5.223-7.625 7.44z" fill="#f7e0ba"/><path d="m194.704 215.098c0 21.367 21.808 35.727 41.25 27.796-10.968-4.474-18.75-15.269-18.75-27.796v-75c0-12.527 7.782-23.323 18.75-27.796-19.442-7.931-41.25 6.429-41.25 27.796zm120-75v60c0 21.367 21.808 35.727 41.25 27.797-10.968-4.473-18.75-15.269-18.75-27.797v-60c0-12.527 7.783-23.323 18.75-27.797-19.442-7.93-41.25 6.43-41.25 27.797zm-60 75c0 21.367 21.808 35.727 41.25 27.796-10.968-4.474-18.75-15.269-18.75-27.796v-82.5c0-12.525 7.783-23.322 18.751-27.796-19.441-7.931-41.25 6.429-41.25 27.796v82.5z" fill="#f7e0ba"/></g><g><path d="m408.029 274.095h-15v-15h15zm0-30h-15v-15h15z" fill="#fff"/></g></g><g><path d="m437.742.658c-20.261-3.842-39.926 9.54-43.829 29.834l-17.296 89.941c-6.613-10.693-18.443-17.835-31.913-17.835-10.72 0-20.403 4.521-27.244 11.757-6.419-11.478-18.696-19.256-32.756-19.256-14.065 0-26.339 7.787-32.756 19.272-6.841-7.24-16.521-11.772-27.244-11.772-20.678 0-37.5 16.822-37.5 37.5v60.036l-28.352-21.177-8.977 12.018 37.533 28.036c1.963 18.846 17.939 33.588 37.295 33.588 12.254 0 23.153-5.909 30-15.026 6.134 8.168 15.521 13.76 26.22 14.836 3.791 5.01 6.858 10.485 9.123 16.321 3.003 7.736 4.525 15.888 4.525 24.229h15c0-10.205-1.864-20.183-5.541-29.657-1.755-4.521-3.912-8.858-6.426-12.991 10.262-3.772 18.433-11.909 22.251-22.148 6.62 5.869 15.324 9.436 24.847 9.436 20.678 0 37.5-16.822 37.5-37.5v-29.285l26.439-137.488c2.345-12.192 14.14-20.237 26.304-17.93 12.182 2.311 20.217 14.111 17.911 26.303l-29.83 157.696v81.197l-20.97 76.894-55.65 9.234 2.455 14.798 51.666-8.573v124.057h-60.393v15h75.393v-146.9l22.499-82.501v-81.8l29.568-156.314c3.844-20.318-9.548-39.979-29.852-43.83zm-213.038 236.94c-12.407 0-22.5-10.093-22.5-22.5v-75c0-12.407 10.093-22.5 22.5-22.5s22.5 10.093 22.5 22.5v75c0 12.406-10.093 22.5-22.5 22.5zm82.5-22.5c0 12.406-10.094 22.5-22.5 22.5s-22.5-10.094-22.5-22.5v-82.5c0-12.406 10.094-22.5 22.5-22.5s22.5 10.093 22.5 22.5zm60-15c0 12.406-10.094 22.5-22.5 22.5s-22.5-10.094-22.5-22.5v-60c0-12.407 10.094-22.5 22.5-22.5s22.5 10.093 22.5 22.5z"/><path d="m310.136 497.001h15v15h-15z"/><path d="m234.743 372.944 51.665 8.573 2.455-14.798-57.568-9.553-99.051-123.213-67.504-50.389 4.487-6.011c5.96-7.984 14.723-13.177 24.674-14.622 9.952-1.446 19.827 1.042 27.807 7.002l16.182 12.087 8.977-12.018-16.182-12.087c-11.191-8.359-25.02-11.852-38.938-9.829-13.917 2.021-26.183 9.299-34.539 20.494l-13.459 18.031 77.999 58.224 97.997 121.902v145.264h75.394v-15h-60.394v-124.057z"/></g></g></svg>