<svg id="Capa_1" enable-background="new 0 0 512.003 512.003" height="512" viewBox="0 0 512.003 512.003" width="512" xmlns="http://www.w3.org/2000/svg"><g><g><path clip-rule="evenodd" d="m165.052 104.245 29.699 157.005v28.848l-68.554-51.173c-19.826-14.799-48.18-10.684-62.979 9.142l-8.973 12.021 72.751 54.307 100.248 124.703v65.405h180.786v-65.405l22.499-82.501v-81.498l29.699-157.005c3.066-16.212-7.672-31.99-23.883-35.065s-31.951 7.684-35.066 23.882l9.413-49.969c3.054-16.214-7.673-31.991-23.883-35.065-16.21-3.075-31.951 7.684-35.066 23.882l-37.772 196.417-40.434-210.266c-3.115-16.198-18.855-26.957-35.066-23.882-16.21 3.075-26.937 18.852-23.883 35.065l9.413 49.969c-3.115-16.198-18.855-26.957-35.066-23.882s-26.949 18.854-23.883 35.065z" fill="#fbf2e2" fill-rule="evenodd"/><path clip-rule="evenodd" d="m374.705 245.099 22.139 2.451 26.935-140.64c1.982-10.353 9.132-18.482 18.266-22.2-17.415-7.092-37.189 3.601-40.766 22.2zm-179.954 45h37.5c41.25 0 75 33.75 75 75h22.5c0-53.668-43.831-97.5-97.5-97.5h-15v-13.849l-29.699-157.004c-2.021-10.684 1.955-21.18 9.541-27.975-19.588-1.724-35.74 15.921-32.041 35.475l29.699 157.005zm-128.775-45.374 83.519 62.171 111.028 137.724-10.78-1.789v61.671h-22.5v-65.405l-100.248-124.702-72.751-54.307 8.973-12.021c.874-1.169 1.796-2.282 2.759-3.342zm317.845-223.261c-4.796 4.252-8.282 10.051-9.578 16.794l-39.121 203.917h-21.15l37.772-196.417c2.922-15.2 16.963-25.61 32.077-24.294zm-137.19-13.845c-7.583 6.795-11.455 17.271-9.543 27.975l37.021 207.194-21.542 2.385-37.979-202.08c-3.675-19.556 12.445-37.201 32.043-35.474z" fill="#f7e0ba" fill-rule="evenodd"/><g><path d="m408.03 349.097h-15v-15h15zm0-30h-15v-15h15z" fill="#fff"/></g></g><g><path d="m310.137 497.003h15v15h-15z"/><path d="m121.71 244.936 70.55 52.663h39.99c37.22 0 67.5 30.28 67.5 67.5h15c0-45.491-37.01-82.5-82.5-82.5h-30v-22.052l-22.76-120.326-14.738 2.788 22.498 118.944v13.188l-56.567-42.226c-23.198-17.316-56.159-12.531-73.477 10.666l-13.458 18.031 77.998 58.224 97.997 121.902v70.264h75.394v-15h-60.394v-49.058l51.665 8.573 2.455-14.798-57.568-9.553-98.454-122.472-.597-.742-67.504-50.39 4.486-6.011c12.37-16.566 35.912-19.985 52.484-7.615z"/><path d="m437.743 75.659c-8.301-1.574-16.499-.254-23.556 3.244l3.876-20.573c3.827-20.315-9.566-39.974-29.855-43.822-20.269-3.845-39.926 9.541-43.828 29.834l-30.407 158.117-33.071-171.965c-3.902-20.295-23.568-33.683-43.828-29.835-20.29 3.848-33.684 23.507-29.855 43.822l3.875 20.573c-7.058-3.499-15.256-4.819-23.556-3.244-20.305 3.851-33.697 23.512-29.854 43.828l4.28 22.63 14.738-2.788-4.28-22.63c-2.306-12.193 5.729-23.992 17.911-26.303 12.166-2.309 23.959 5.737 26.304 17.93l27.703 144.059-14.289 1.582 1.65 14.909 43.233-4.787-1.65-14.909-13.987 1.549-27.93-145.236c-.001-.005-.002-.01-.003-.015l-9.405-49.926c-2.298-12.197 5.736-23.999 17.91-26.308 12.157-2.308 23.959 5.736 26.303 17.93l38.72 201.348h-13.42v15h45v-15h-13.42l36.058-187.5c2.344-12.192 14.137-20.237 26.303-17.93 12.173 2.309 20.207 14.111 17.91 26.309l-9.406 49.928c-.001.004-.002.008-.003.012l-25.267 131.388-14.734-1.631-1.65 14.909 43.234 4.786 1.65-14.909-13.543-1.499 25.04-130.211c2.345-12.193 14.139-20.238 26.304-17.93 12.182 2.311 20.217 14.11 17.911 26.303l-29.83 157.696v81.197l-20.97 76.894-55.65 9.234 2.455 14.798 51.666-8.573v49.058h-60.393v15h75.393v-71.901l22.499-82.501v-81.799l29.568-156.315c3.842-20.314-9.551-39.975-29.854-43.827z"/></g></g></svg>