<svg id="Capa_1" enable-background="new 0 0 511.999 511.999" height="512" viewBox="0 0 511.999 511.999" width="512" xmlns="http://www.w3.org/2000/svg"><g><g><g clip-rule="evenodd" fill-rule="evenodd"><path d="m419.654 400.816c-3.186-16.173-19.011-26.803-35.183-23.645l-36.949 7.279c-16.182 3.213-26.715 19.04-23.529 35.212 3.182 16.154 18.977 26.78 35.129 23.656l36.897-7.269c16.186-3.188 26.824-19.043 23.635-35.233z" fill="#fbf2e2"/><path d="m391.78 375.731c16.189-3.189 26.825-19.044 23.635-35.233-3.186-16.174-19.014-26.805-35.188-23.644l-58.914 11.606c-16.167 3.183-26.82 19.068-23.636 35.233 3.19 16.189 19.044 26.825 35.233 23.636 19.624-3.866 39.247-7.732 58.87-11.598z" fill="#fbf2e2"/><path d="m387.54 315.413c16.189-3.189 26.825-19.044 23.635-35.233-3.189-16.189-19.046-26.824-35.233-23.635l-80.944 15.946c-16.189 3.189-26.825 19.044-23.635 35.233 3.189 16.189 19.044 26.825 35.233 23.636 26.982-5.316 53.963-10.631 80.944-15.947z" fill="#fbf2e2"/><path d="m294.999 272.491 73.586-14.497c16.189-3.189 26.824-19.044 23.635-35.233-3.19-16.189-19.045-26.825-35.233-23.636l-73.585 14.497c-16.095 3.172-26.83 19.019-23.636 35.233 3.189 16.19 19.044 26.825 35.233 23.636z" fill="#fbf2e2"/><path d="m297.678 363.693c-3.182-16.152 7.399-31.972 23.526-35.211l-14.607 2.878c-16.189 3.189-32.044-7.447-35.233-23.636s7.446-32.043 23.635-35.233c-16.189 3.189-32.043-7.446-35.233-23.635-2.808-14.255 5.102-28.25 18.082-33.565l34.985-73.035c10.688-22.312 1.169-49.336-21.143-60.024l-13.528-6.48-39.22 81.876-102.975 122.461-128.467 25.309v184.261l163.411-32.193 85.294 6.128 102.916-20.275c-16.152 3.124-31.947-7.502-35.129-23.656-3.184-16.163 7.306-31.971 23.451-35.196l-14.532 2.863c-16.189 3.188-32.044-7.448-35.233-23.637z" fill="#fbf2e2"/><path d="m297.678 363.693c-3.182-16.152 7.399-31.972 23.526-35.211l-14.607 2.878c-16.189 3.189-32.044-7.447-35.233-23.636s7.446-32.043 23.635-35.233c-16.189 3.189-32.043-7.446-35.233-23.635-2.808-14.255 5.102-28.25 18.082-33.565l12.433-25.955-11.229 2.212c-41.829 8.241-56.472 60.253-26.264 89.26-11.025 24.911-1.141 53.943 22.807 67.107-4.405 22.369 6.245 44.929 26.299 55.961-3.412 17.435 2.28 35.401 15.104 47.743l42.123-8.299c-16.152 3.124-31.947-7.502-35.129-23.656-3.184-16.163 7.306-31.971 23.451-35.196l-14.532 2.863c-16.189 3.187-32.044-7.449-35.233-23.638z" fill="#f7e0ba"/><path d="m30 300.965-22.5 4.433v184.261l22.5-4.433z" fill="#f7e0ba"/><path d="m294.999 272.491 21.749-4.285c-16.189 3.19-32.043-7.446-35.233-23.635-3.194-16.214 7.541-32.062 23.635-35.233l-21.749 4.285c-16.095 3.172-26.83 19.019-23.636 35.233 3.19 16.189 19.045 26.824 35.234 23.635z" fill="#f7e0ba"/><path d="m329.096 326.927c-16.189 3.189-32.044-7.559-35.233-23.748-3.023-15.346 6.377-30.389 21.154-34.632l-20.018 3.944c-16.189 3.189-26.825 19.044-23.635 35.233 3.189 16.189 19.06 26.903 35.233 23.636z" fill="#f7e0ba"/><path d="m321.313 328.46c-16.167 3.183-26.82 19.068-23.636 35.233 3.189 16.189 19.044 26.825 35.233 23.636l21.097-4.156c-15.692 2.328-30.732-8.156-33.83-23.877-3.185-16.165 7.469-32.05 23.636-35.233z" fill="#f7e0ba"/><path d="m369.979 380.026-22.457 4.424c-16.182 3.213-26.715 19.04-23.529 35.212 3.182 16.154 18.977 26.78 35.129 23.656l22.445-4.422c-16.148 3.116-31.935-7.508-35.117-23.658-3.186-16.171 7.347-31.999 23.529-35.212z" fill="#f7e0ba"/></g><g><path d="m187.284 277.327-11.48-9.653 9.653-11.481 11.48 9.653zm19.308-22.961-11.48-9.653 9.654-11.481 11.48 9.653z" fill="#fff"/></g><g><path d="m432.8 511.443-5.9-13.791c19.441-8.317 37.155-23.343 49.877-42.31 12.722-18.966 19.904-41.056 20.225-62.2l14.998.228c-.369 24.355-8.241 48.674-22.766 70.328s-34.04 38.164-56.434 47.745zm-11.8-27.582-5.9-13.791c14.175-6.064 27.23-17.229 36.763-31.439 9.531-14.21 14.908-30.526 15.142-45.942l14.998.227c-.275 18.28-6.556 37.483-17.683 54.071-11.128 16.588-26.512 29.684-43.32 36.874z" fill="#faef93"/></g><g><path d="m205.374 118.079-14.982-.736c.897-18.26 7.826-37.238 19.511-53.439 11.683-16.2 27.503-28.765 44.547-35.381l5.428 13.983c-14.373 5.58-27.801 16.295-37.809 30.172-10.009 13.878-15.938 30.002-16.695 45.401zm-29.963-1.472-14.982-.736c1.195-24.328 9.889-48.366 25.142-69.514s35.316-36.986 58.023-45.8l5.428 13.983c-19.712 7.652-37.926 22.067-51.285 40.591-13.36 18.523-21.289 40.356-22.326 61.476z" fill="#faef93"/></g></g><g><path d="m81.706 466.062h15v15h-15z" transform="matrix(.981 -.193 .193 .981 -89.885 26.186)"/><path d="m15 480.537v-168.973l113.736-22.406 1.575 52.348 14.994-.452-1.755-58.329 101.743-120.999 16.781-35.032-13.527-6.481-15.959 33.316-100.662 119.712-131.926 25.99v199.55l68.58-13.511-2.899-14.717z"/><path d="m427.012 399.367c-1.929-9.795-7.583-18.271-15.921-23.864-.301-.202-.609-.389-.914-.582 2.615-2.224 4.947-4.818 6.915-7.753 5.594-8.338 7.611-18.324 5.682-28.12-2.072-10.519-8.38-19.146-16.803-24.459 2.604-2.22 4.921-4.814 6.883-7.739 5.593-8.338 7.61-18.324 5.681-28.12-2.719-13.799-12.73-24.338-25.239-28.414 5.781-8.111 8.355-18.484 6.283-29.005-3.996-20.288-23.751-33.541-44.042-29.545l-64.159 12.64 28.22-58.911c12.506-26.108 1.44-57.522-24.667-70.028l-20.293-9.721-19.609 40.938 13.527 6.48 13.13-27.41 6.765 3.24c18.648 8.933 26.552 31.371 17.62 50.02l-33.818 70.598c-14.596 7.405-23.16 23.861-19.844 40.692 2.37 12.029 10.284 21.578 20.561 26.531-1.18 1.317-2.279 2.722-3.282 4.218-4.881 7.276-7.037 15.809-6.225 24.374-4.183 4.688-8.962 8.756-14.249 12.106-7.011 4.442-14.715 7.511-22.897 9.124l2.898 14.717c10.012-1.972 19.441-5.73 28.027-11.169 4.097-2.596 7.936-5.552 11.505-8.818 2.793 4.586 6.575 8.559 11.181 11.649 4.563 3.06 9.616 5.05 14.864 5.908-4.667 7.927-6.256 17.144-4.472 26.197 3.108 15.778 15.75 27.295 30.76 29.758-4.469 7.63-6.288 16.861-4.446 26.211 1.63 8.276 5.882 15.381 11.725 20.623l-72.616 14.306-79.498-5.711-19.816-52.816-14.045 5.27 18.398 49.034-50.949 10.037 2.9 14.717 58.643-11.553 85.295 6.128 103.94-20.477c.021-.004.044-.008.064-.013l36.794-7.249c9.794-1.929 18.269-7.584 23.862-15.921 5.594-8.337 7.611-18.324 5.681-28.118zm-142.161-178.386 73.585-14.497c12.172-2.395 24.027 5.555 26.426 17.728 2.397 12.172-5.554 24.026-17.727 26.425l-73.586 14.496c-12.175 2.397-24.026-5.555-26.425-17.727-2.397-12.172 5.555-24.027 17.727-26.425zm3.432 99.599c-5.011-3.361-8.406-8.442-9.562-14.306s.06-11.853 3.421-16.863 8.441-8.406 14.306-9.562c0 0 83.864-16.373 85.302-16.373 10.525 0 19.957 7.444 22.067 18.153 2.397 12.173-5.555 24.027-17.727 26.425l-80.944 15.946c-5.866 1.155-11.853-.059-16.863-3.42zm16.753 41.663c-1.155-5.864.06-11.853 3.421-16.863 3.347-4.989 8.397-8.376 14.229-9.546l59.082-11.64c12.127-2.313 23.899 5.627 26.288 17.753 1.155 5.864-.06 11.853-3.421 16.864-3.361 5.01-8.442 8.406-14.307 9.561l-58.868 11.598c-12.171 2.399-24.025-5.554-26.424-17.727zm103.838 56.887c-3.361 5.011-8.441 8.406-14.306 9.562l-36.833 7.256c-12.161 2.372-23.989-5.575-26.385-17.735-2.397-12.172 5.507-24.017 17.621-26.404l36.899-7.27c5.866-1.155 11.854.06 16.863 3.421s8.405 8.441 9.561 14.307c1.156 5.863-.059 11.852-3.42 16.863z"/></g></g></svg>