<svg id="Capa_1" enable-background="new 0 0 512 512" height="512" viewBox="0 0 512 512" width="512" xmlns="http://www.w3.org/2000/svg"><g><g><path clip-rule="evenodd" d="m79.076 253.047-9.485 11.621 70.331 57.406 94.755 128.926v53.5h180.786v-53.5l29.999-82.501v-142.499c0-16.499-13.5-30-30-30s-30 13.5-30 30v-15c0-16.5-13.5-30-30-30s-30 13.5-30 30l-10.545-175.267c-.99-16.459-15.245-29.151-31.716-28.179s-29.152 15.245-28.18 31.716l.885 15c-.972-16.461-15.221-29.151-31.692-28.179s-29.152 15.244-28.18 31.716l10.937 185.223.001 56.312-64.58-52.701c-19.168-15.642-47.672-12.761-63.316 6.406z" fill="#fbf2e2" fill-rule="evenodd"/><path clip-rule="evenodd" d="m69.591 264.668 70.331 57.406 94.755 128.926v53.5h22.5v-49.767l6-3.434-100.755-136.725-79.893-65.293c-4.532 4.416-8.896 10.434-12.938 15.387zm315.871-38.668v52.5h22.5v-52.5c0-12.527 7.782-23.323 18.75-27.796-19.442-7.931-41.25 6.428-41.25 27.796zm-60-15v59.906h22.5v-59.906c0-12.527 7.783-23.323 18.75-27.797-19.442-7.931-41.25 6.43-41.25 27.797zm-29.262-201.295c-11.566 4.719-19.454 16.444-18.68 29.564l11.02 186.637v44.999h-22.5v-44.999l-11.02-186.637c-1.303-22.096 21.08-37.764 41.18-29.564zm-67.637 16.446c-6.617 5.907-10.589 14.666-10.029 24.155l10.937 185.223.001 90.655h-22.5l-.001-83.155-10.937-185.224c-1.075-18.213 14.455-33.223 32.529-31.654z" fill="#f7e0ba" fill-rule="evenodd"/><g><path d="m422.962 345.999h-15v-15h15zm0-30h-15v-15h15z" fill="#fff"/></g><g><path d="m434.834 65.305h-94.499v-15h94.499zm-261.299 0h-74.999v-15h74.999z" fill="#d571ab"/></g><g><path d="m408.317 94.928-10.606-10.606 26.517-26.517-26.517-26.517 10.606-10.606 37.123 37.123zm-283.265 0-37.123-37.123 37.123-37.123 10.606 10.606-26.516 26.517 26.516 26.517z" fill="#d571ab"/></g></g><g><path d="m452.962 226c0-20.678-16.822-37.5-37.5-37.5-9.522 0-18.227 3.567-24.847 9.436-5.315-14.255-19.068-24.436-35.153-24.436-9.221 0-17.67 3.352-24.208 8.893l-8.851-147.11c-1.242-20.635-19.028-36.439-39.645-35.215-9.966.588-19.127 5.045-25.796 12.551-3.65 4.109-6.298 8.854-7.858 13.941-6.952-5.468-15.839-8.522-25.333-7.955-20.641 1.218-36.443 19.002-35.225 39.645l1.33 22.515 14.974-.884-1.33-22.515c-.731-12.385 8.75-23.056 21.135-23.787 12.383-.731 23.03 8.749 23.763 21.13l10.121 171.42v44.779h15v-45.221l-10.146-171.86c0-.001 0-.002 0-.003l-.885-14.996c-.352-5.966 1.661-11.736 5.668-16.247 4.008-4.51 9.5-7.188 15.466-7.54 12.358-.727 23.042 8.754 23.788 21.143l10.532 175.04v59.776h15v-60c0-12.406 10.093-22.5 22.5-22.5s22.5 10.094 22.5 22.5v67.5h15v-52.5c0-12.406 10.093-22.5 22.5-22.5s22.5 10.094 22.5 22.5v141.178l-28.05 77.141-26.07 4.326 2.456 14.798 21.665-3.595v37.152h-60.393v15h75.393v-59.679l29.999-82.501z"/><path d="m242.177 459.847 21.665 3.595 2.456-14.798-27.384-4.544-93.511-127.235-65.259-53.265 4.743-5.811c13.074-16.016 36.743-18.412 52.764-5.339l61.822 50.45v23.283h15l-.001-83.376-8.736-147.954-14.974.884 8.71 147.512v40.29l-52.338-42.711c-22.427-18.301-55.564-14.948-73.868 7.476l-14.227 17.431 75.404 61.546 92.734 126.177v58.542h75.393v-15h-60.393z"/><path d="m317.57 497h15v15h-15z"/></g></g></svg>