<svg id="Capa_1" enable-background="new 0 0 512.047 512.047" height="512" viewBox="0 0 512.047 512.047" width="512" xmlns="http://www.w3.org/2000/svg"><g><g><path clip-rule="evenodd" d="m7.5 265.208v183.53l72.521-12.684 86.436 15.337 140.369-24.55c16.251-2.842 27.225-18.467 24.383-34.72-2.843-16.254-18.466-27.226-34.72-24.383l14.776-2.584c16.253-2.843 27.225-18.466 24.383-34.72-2.843-16.253-18.466-27.225-34.72-24.383l148.742-26.015c16.244-2.841 27.225-18.466 24.383-34.72-2.843-16.253-18.466-27.226-34.72-24.383l-14.776 2.584c16.253-2.843 27.226-18.466 24.383-34.72-2.842-16.254-18.466-27.226-34.72-24.383l-219.772 38.438 39.833-70.994c12.105-21.575 4.356-49.157-17.219-61.265l-13.081-7.341-44.431 79.17-110.675 115.549z" fill="#fbf2e2" fill-rule="evenodd"/><path clip-rule="evenodd" d="m7.5 265.208v183.53l22.5-3.935v-183.53z" fill="#f7e0ba" fill-rule="evenodd"/><g><path d="m178.013 243.795-2.584-14.775 14.776-2.584 2.584 14.775zm29.551-5.168-2.584-14.775 14.776-2.584 2.584 14.775z" fill="#fff"/></g><g><path d="m457.306 386.483-32.106-45.762-34.916 18.066 3.021-41.139 14.959 1.099-1.057 14.395 22.742-11.767 21.802 31.075 10.792-36.395 25.303 3.927-5.578-13.311 13.834-5.798 15.945 38.044-38.85-6.03zm-66.546-246.704-9.608-40.116 37.37 12.208 24.316-50.335 24.317 50.335 37.369-12.208-9.607 40.115-14.588-3.493 3.361-14.036-24.34 7.951-16.513-34.181-16.51 34.181-24.341-7.951 3.362 14.036z" fill="#faef93"/></g></g><g><path d="m166.466 443.775-80.82-14.34-8.752-24.935-14.154 4.968 7.274 20.722-55.014 9.622v-168.302l26.452-4.626.192 21.96 14.999-.131-.242-27.756 109.222-114.035 19.011-33.875-13.081-7.341-18.079 32.215-108.314 113.087-45.16 7.898v198.758l80.011-13.995 86.437 15.338 49.322-8.627-2.584-14.776z"/><path d="m229.142 431.616h15v15h-15z" transform="matrix(.985 -.172 .172 .985 -72.109 47.331)"/><path d="m481.439 244.024c-2.771-15.846-15.167-27.639-30.126-30.417 4.64-7.533 6.654-16.722 5.014-26.101-3.563-20.368-23.03-34.045-43.399-30.479l-204.208 35.716 32.102-57.214c14.165-25.246 5.152-57.31-20.09-71.476l-19.622-11.012-22.215 39.585 13.081 7.341 14.875-26.504 6.541 3.671c18.03 10.118 24.467 33.021 14.349 51.055l-38.091 67.89-18.656 3.263 2.584 14.775 241.936-42.314c12.224-2.138 23.902 6.067 26.04 18.287 2.138 12.221-6.066 23.902-18.287 26.04l-178.292 31.184 2.584 14.775 193.068-33.768c12.221-2.134 23.902 6.066 26.04 18.287s-6.066 23.903-18.287 26.04l-148.725 26.012c-.006.001-.013.002-.019.003l-36.939 6.46 2.584 14.776 36.939-6.46c5.888-1.03 11.85.313 16.786 3.78 4.938 3.468 8.224 8.62 9.254 14.507 2.138 12.221-6.066 23.903-18.287 26.041l-14.729 2.576c-.016.002-.031.005-.047.008l-29.553 5.168 2.584 14.776 29.628-5.182c5.859-1.007 11.795.34 16.711 3.793 4.938 3.467 8.224 8.62 9.254 14.507 2.138 12.221-6.066 23.903-18.287 26.041l-48.021 8.398 2.584 14.776 48.021-8.399c20.368-3.562 34.041-23.032 30.479-43.4-1.59-9.09-6.386-17.121-13.591-22.841 13.136-7.689 20.802-22.996 18.029-38.846-1.415-8.089-5.373-15.335-11.304-20.865l119.23-20.853c20.368-3.563 34.04-23.032 30.478-43.4z"/></g></g></svg>