<svg id="Capa_1" enable-background="new 0 0 511.98 511.98" height="512" viewBox="0 0 511.98 511.98" width="512" xmlns="http://www.w3.org/2000/svg"><g><g><path clip-rule="evenodd" d="m139.912 297.083 94.755 113.926v93.471h180.786v-93.471l29.999-82.501v-173.728c0-16.498-13.5-30-30-30s-30 13.5-30 30v-15c0-16.5-13.5-30-30-30s-30 13.5-30 30v-15c0-16.5-13.5-30-30-30s-30 13.5-30 30l-34.054-96.893c-5.471-15.566-22.373-24.118-38.009-18.849s-24.34 22.454-18.85 38.009l30.913 87.571v138.5l-63.07-51.468c-19.167-15.641-47.672-12.76-63.316 6.407l-9.485 11.621z" fill="#fbf2e2" fill-rule="evenodd"/><path clip-rule="evenodd" d="m139.912 297.083 94.755 113.926v93.471h22.5v-89.737l6.15-3.733-100.905-121.427-79.93-65.258c-4.517 4.411-8.868 10.411-12.901 15.352zm286.79-170.1c-19.443-7.929-41.25 6.429-41.25 27.796v68.729h22.5v-68.728c0-12.527 7.782-23.323 18.75-27.797zm-60-14.999c-19.443-7.929-41.25 6.429-41.25 27.796v76.229h22.5v-76.229c0-12.527 7.782-23.323 18.75-27.796zm-60-15c-19.443-7.929-41.25 6.429-41.25 27.797v83.729h22.5v-83.73c-.001-12.527 7.782-23.323 18.75-27.796zm-101.225-89.383c-8.717 7.792-12.541 20.324-8.439 31.946l30.913 87.571v168.499h-22.5v-161l-30.913-87.571c-5.491-15.555 3.214-32.74 18.85-38.009 4.018-1.353 8.119-1.792 12.089-1.436z" fill="#f7e0ba" fill-rule="evenodd"/><g><path d="m422.952 306.008h-15v-15h15zm0-30h-15v-15h15z" fill="#fff"/></g><g><path d="m120.288 188.731-37.123-37.124 10.607-10.606 26.516 26.516 26.515-26.516 10.608 10.606z" fill="#d571ab"/></g><g><path d="m112.788 40.724h15v137.399h-15z" fill="#d571ab"/></g><g><path d="m146.803 77.847-26.515-26.516-26.516 26.516-10.607-10.606 37.123-37.124 37.123 37.124z" fill="#d571ab"/></g></g><g><path d="m452.952 154.78c0-20.678-16.822-37.5-37.5-37.5-9.522 0-18.227 3.567-24.847 9.436-5.315-14.255-19.068-24.435-35.153-24.435-9.522 0-18.227 3.567-24.847 9.436-5.315-14.255-19.068-24.436-35.153-24.436-12.234 0-23.115 5.89-29.965 14.981l-13.455-38.283-14.152 4.974 20.072 57.108v82.449h15v-83.73c0-12.407 10.094-22.5 22.5-22.5s22.5 10.093 22.5 22.5v91.229h15v-76.229c0-12.406 10.094-22.5 22.5-22.5s22.5 10.093 22.5 22.5v83.729h15v-68.729c0-12.407 10.094-22.5 22.5-22.5s22.5 10.093 22.5 22.5v172.407l-28.05 77.141-26.069 4.326 2.455 14.798 21.665-3.595v77.124h-60.393v15h75.393v-99.65l29.999-82.501z"/><path d="m242.167 419.856 21.666 3.595 2.455-14.798-27.64-4.586-93.432-112.337-65.082-53.121 4.743-5.811c13.073-16.017 36.743-18.412 52.763-5.339l60.313 49.218v18.94h15v-162.284l-31.342-88.783c-1.938-5.487-1.567-11.458 1.041-16.814 2.692-5.528 7.355-9.645 13.132-11.591 11.6-3.911 24.405 2.471 28.537 14.229l8.585 24.426 14.152-4.974-8.585-24.426c-6.84-19.459-28.142-29.989-47.479-23.47-9.472 3.191-17.428 10.204-21.827 19.238-4.381 8.994-4.984 19.071-1.7 28.375l30.485 86.359v121.414l-50.828-41.479c-22.428-18.301-55.565-14.949-73.868 7.476l-14.228 17.431 75.581 61.69 92.558 111.286v98.259h75.393v-15h-60.393z"/><path d="m317.56 496.98h15v15h-15z"/></g></g></svg>