<svg id="Capa_1" enable-background="new 0 0 512 512" height="512" viewBox="0 0 512 512" width="512" xmlns="http://www.w3.org/2000/svg"><g><g><g clip-rule="evenodd" fill-rule="evenodd"><path d="m105.056 333.757c16.475.03 29.944 13.518 29.944 30 0 16.5-13.5 30-30 30h-14.935c16.471.036 29.935 13.522 29.935 30 0 16.5-13.5 30-30 30h105l82.502-22.499h226.998v-180.786h-226.999l-42.227-101.182-8.889-90.349-14.928 1.469c-24.62 2.422-42.8 24.569-40.378 49.19l10.248 104.158h-61.239c16.46.048 29.912 13.529 29.912 30 0 16.5-13.5 30-30 30 16.5 0 30 13.5 30 30 0 16.501-13.5 30-30 30h-14.944z" fill="#fbf2e2"/><path d="m105.056 333.757c16.475.03 29.944 13.518 29.944 30 0 16.5-13.5 30-30 30h-14.935c16.471.036 29.935 13.522 29.935 30 0 16.5-13.5 30-30 30h42.979c9.68-13.91 12.75-32.367 5.658-49.741 17.487-14.641 23.586-38.965 15.001-60.001 20.877-17.48 24.969-48.014 9.407-70.258 13.443-19.217 11.68-42.934-.047-60h-42.911c16.46.048 29.912 13.529 29.912 30 0 16.5-13.5 30-30 30 16.5 0 30 13.5 30 30 0 16.501-13.5 30-30 30z" fill="#f7e0ba"/><path d="m90 393.757h-37.5c-16.5 0-30 13.5-30 30s13.502 30 30 30h37.5c16.499 0 30-13.5 30-30 0-16.491-13.505-30-30-30z" fill="#fbf2e2"/><path d="m105 393.757c16.5 0 30-13.5 30-30 0-16.482-13.469-29.97-29.944-30h-60.056c-16.5 0-30 13.5-30 30s13.5 30 30 30z" fill="#fbf2e2"/><path d="m120 333.757c16.5 0 30-13.5 30-30s-13.5-30-30-30c-27.5 0-55 0-82.5 0-16.498 0-30 13.5-30 30 0 16.501 13.5 30 30 30z" fill="#fbf2e2"/><path d="m45 273.757h75c16.5 0 30-13.5 30-30 0-16.471-13.453-29.952-29.912-30h-75.088c-16.499 0-30 13.5-30 30 0 16.501 13.5 30 30 30z" fill="#fbf2e2"/><path d="m75 393.758h-22.5c-16.5 0-30 13.5-30 30s13.502 30 30 30h22.5c-16.498 0-30-13.499-30-30s13.5-30 30-30z" fill="#f7e0ba"/><path d="m67.5 333.757h-22.5c-16.5 0-30 13.5-30 30s13.5 30 30 30h22.492c-16.496-.004-29.992-13.503-29.992-30 0-16.5 13.5-30 30-30z" fill="#f7e0ba"/><path d="m60 273.757h-22.5c-16.498 0-30 13.5-30 30 0 16.501 13.5 30 30 30h22.494c-16.498-.003-29.994-13.501-29.994-30 0-16.5 13.502-30 30-30z" fill="#f7e0ba"/><path d="m45 273.757h22.493c-16.497-.004-29.993-13.502-29.993-30 0-16.501 13.5-30 30-30h-22.5c-16.499 0-30 13.5-30 30 0 16.501 13.5 30 30 30z" fill="#f7e0ba"/><path d="m181.326 236.257h22.5v-22.5l-12.048-124.258c-.865-8.916.965-17.506 4.817-24.954-16.63 7.937-27.418 25.733-25.517 45.054l10.248 104.158z" fill="#f7e0ba"/></g><g><path d="m482 287.972h-15v-15h15zm-30 0h-15v-15h15z" fill="#fff"/></g></g><g><path d="m282.498 242.972-39.87-95.534-9.515-96.695-22.392 2.203c-28.81 2.834-49.941 28.578-47.107 57.388l2.218 22.537 14.928-1.469-2.218-22.537c-2.024-20.578 13.07-38.967 33.648-40.991l7.464-.734 8.265 84.002 42.326 101.418 9.879 59.532 14.797-2.455-8.573-51.666h210.652v165.786h-30v15h45v-195.785z"/><path d="m437 423.758h15v15h-15z"/><path d="m294.921 372.092-14.797-2.456-9.235 55.65-76.894 20.97h-74.013c4.718-6.271 7.518-14.065 7.518-22.5 0-9.525-3.575-18.226-9.447-24.847 14.261-5.313 24.447-19.064 24.447-35.153 0-9.522-3.567-18.226-9.436-24.847 7.969-2.972 14.663-8.581 19.018-15.76 5.627 8.003 12.656 14.992 20.851 20.643 13.797 9.513 29.927 14.542 46.646 14.542v-15c-27.201 0-51.438-16.133-62.12-41.203-.497-11.589-6.273-21.832-14.985-28.374 9.117-6.847 15.026-17.746 15.026-30 0-8.435-2.8-16.229-7.518-22.5h23.844v15h15v-22.868l-6.598-67.058-14.928 1.469 5.751 58.458h-52.921c-.043 0-.087 0-.13 0h-75c-20.678 0-37.5 16.822-37.5 37.5 0 10.724 4.532 20.403 11.772 27.244-11.485 6.416-19.272 18.691-19.272 32.755 0 14.06 7.778 26.337 19.257 32.756-7.236 6.841-11.757 16.525-11.757 27.244 0 14.065 7.787 26.339 19.272 32.756-7.24 6.842-11.772 16.521-11.772 27.244 0 9.983 3.91 19.392 11.01 26.491s16.508 11.009 26.49 11.009h143.504l82.502-22.5h143.494v-15h-135.652zm-249.921-150.835h75.1c12.361.054 22.4 10.126 22.4 22.5 0 12.406-10.094 22.5-22.5 22.5h-75.002c-12.406-.001-22.498-10.094-22.498-22.5s10.094-22.5 22.5-22.5zm-30 82.5c0-12.407 10.094-22.5 22.5-22.5h7.498.002 75c12.406 0 22.5 10.093 22.5 22.5s-10.094 22.5-22.5 22.5h-82.5c-12.406 0-22.5-10.093-22.5-22.5zm30 82.501c-12.406 0-22.5-10.094-22.5-22.5s10.094-22.5 22.5-22.5h60c12.406 0 22.5 10.093 22.5 22.5s-10.094 22.5-22.5 22.5zm45 59.999h-37.5c-5.977 0-11.617-2.349-15.884-6.616-4.266-4.266-6.616-9.907-6.616-15.884 0-12.401 10.085-22.49 22.483-22.5h37.522c12.404.003 22.495 10.095 22.495 22.5 0 12.407-10.094 22.5-22.5 22.5z"/></g></g></svg>