<svg id="Capa_1" enable-background="new 0 0 512 512" height="512" viewBox="0 0 512 512" width="512" xmlns="http://www.w3.org/2000/svg"><g><g><path clip-rule="evenodd" d="m504.5 261.528v-180.786h-226.999l-82.501-22.499h-142.5c-16.498 0-30 13.499-30 30 0 16.459 13.433 29.933 29.877 30h-7.377c-16.499 0-30 13.5-30 30s13.5 30 30 30h-7.5c-16.5 0-30 13.5-30 30s13.503 30 30 30h7.454c-16.479.025-29.954 13.515-29.954 30 0 16.5 13.501 30 30 30h128.827l-10.248 104.158c-2.422 24.62 15.758 46.767 40.378 49.19l14.928 1.469 8.889-90.349 49.727-101.182h226.999z" fill="#fbf2e2" fill-rule="evenodd"/><path clip-rule="evenodd" d="m75 58.243h-22.5c-16.498 0-30 13.499-30 30 0 16.459 13.433 29.933 29.877 30h-7.377c-16.499 0-30 13.5-30 30s13.5 30 30 30h-7.5c-16.5 0-30 13.5-30 30s13.503 30 30 30h7.454c-16.479.025-29.954 13.515-29.954 30 0 16.5 13.501 30 30 30h22.5c-16.499 0-30-13.5-30-30 0-16.484 13.475-29.975 29.954-30h-7.454c-16.497 0-30-13.5-30-30s13.499-30 30-30h7.5c-16.5 0-30-13.5-30-30 0-16.501 13.501-30 30-30h7.377c-16.445-.068-29.877-13.541-29.877-30 0-16.501 13.502-30.001 30-30zm98.827 240-10.248 104.158c-2.422 24.62 15.758 46.767 40.378 49.19 0 0-22.273-4.517-17.878-49.19l10.248-104.158z" fill="#f7e0ba" fill-rule="evenodd"/><g><path d="m482 118.242h-15v-15h15zm-30 0h-15v-15h15z" fill="#fff"/></g></g><g><path d="m437 254.028h15v15h-15z"/><path d="m278.505 73.242-82.501-22.499h-106.004v15h103.996l76.893 20.97 4.257 25.65 14.797-2.456-3.595-21.665h210.652v165.786h-30v15h45v-195.786z"/><path d="m289.943 232.362-14.798-2.455-4.863 29.304-49.84 101.412-8.288 84.238-7.464-.734c-9.914-.975-18.887-5.793-25.267-13.565s-9.356-17.513-8.381-27.426l9.582-97.392h23.201v-15h-158.827c-12.406 0-22.5-10.093-22.5-22.5s10.093-22.5 22.5-22.5h52.5v-15h-60c-12.407 0-22.5-10.093-22.5-22.5s10.093-22.5 22.5-22.5h67.502v-15h-60c-12.407 0-22.5-10.093-22.5-22.5s10.093-22.5 22.5-22.5h67.5v-15h-60.017c-12.398-.012-22.483-10.101-22.483-22.501 0-5.977 2.35-11.618 6.617-15.884 4.267-4.267 9.907-6.616 15.883-6.616h22.5v-15h-22.5c-9.982 0-19.39 3.91-26.489 11.009-7.101 7.099-11.011 16.507-11.011 26.491 0 10.723 4.532 20.403 11.772 27.244-11.485 6.416-19.272 18.691-19.272 32.756 0 10.72 4.521 20.403 11.757 27.244-11.478 6.418-19.257 18.696-19.257 32.756 0 14.065 7.787 26.339 19.272 32.756-7.24 6.841-11.772 16.52-11.772 27.244 0 20.678 16.822 37.5 37.5 37.5h120.553l-9.438 95.923c-1.368 13.901 2.792 27.543 11.715 38.412 8.922 10.869 21.491 17.608 35.392 18.976l22.392 2.203 9.491-96.459 47.067-95.77h139.828v-15h-135.652z"/></g></g></svg>