<svg id="Capa_1" enable-background="new 0 0 512 512" height="512" viewBox="0 0 512 512" width="512" xmlns="http://www.w3.org/2000/svg"><g><g><g clip-rule="evenodd" fill-rule="evenodd"><path d="m69.356 256.99 72.751 54.307 100.248 124.703v68.5h180.786v-68.5l22.5-67.501v-277.498c0-16.496-13.5-30-30-30s-30 13.5-30 30v176.93c0 16.498-13.5 30-30 30s-30-13.5-30-30v15c0 16.5-13.5 30-30 30s-30-13.5-30-30v-245.431c0-16.495-13.5-30-30-30s-30 13.5-30 30v246.349l-64.332-48.021c-19.826-14.799-48.18-10.684-62.979 9.142z" fill="#fbf2e2"/><path d="m265.64 192.931v90c0 16.5 13.5 30 30 30s30-13.5 30-30v-90c0-16.5-13.5-30-30-30s-30 13.502-30 30z" fill="#fbf2e2"/><path d="m325.64 200.431v67.5c0 16.5 13.5 30 30 30s30-13.502 30-30v-67.5c0-16.5-13.5-30-30-30s-30 13.5-30 30z" fill="#fbf2e2"/><path d="m69.356 256.99 72.751 54.307 100.248 124.703v68.5h22.5v-64.767l10.439 1.732-110.687-137.668-83.55-62.135c-4.111 4.532-8.005 10.377-11.701 15.328zm226.284 55.94c16.722 0 30-13.763 30-30v-15c0 16.5 13.5 30 30 30 16.793 0 30-13.801 30-30v-176.929c0-16.5 13.5-30 30-30 0 0-7.5 9.061-7.5 22.5v184.43c0 43.019-48.814 67.156-82.958 42.718-.267 1.506-.647 2.974-1.131 4.395 7.475 13.984 11.458 29.647 11.458 45.747h-22.5c.001-17.553-6.147-34.383-17.369-47.861zm-60-305.43s-7.5 9.061-7.5 22.5v253.849h-22.5v-246.349c0-16.5 13.5-30 30-30z" fill="#f7e0ba"/><path d="m325.64 200.431v67.5c0 21.367 21.808 35.728 41.249 27.796-10.968-4.474-18.75-15.269-18.75-27.796v-67.5c0-12.527 7.783-23.323 18.75-27.796-19.44-7.932-41.249 6.429-41.249 27.796z" fill="#f7e0ba"/><path d="m265.64 192.931v90c0 21.367 21.808 35.727 41.25 27.796-10.968-4.474-18.75-15.269-18.75-27.796v-90c0-12.525 7.783-23.322 18.751-27.796-19.442-7.931-41.251 6.429-41.251 27.796z" fill="#f7e0ba"/></g><g><path d="m423.141 353.498h-15v-15h15zm0-30h-15v-15h15z" fill="#fff"/></g></g><g><path d="m453.14 91c0-20.678-16.822-37.5-37.5-37.5s-37.5 16.822-37.5 37.5v79.448c-6.271-4.718-14.065-7.518-22.5-7.518-10.72 0-20.403 4.521-27.244 11.757-6.418-11.48-18.695-19.257-32.756-19.257-8.434 0-16.228 2.8-22.5 7.518v-125.448c0-20.678-16.823-37.5-37.5-37.5s-37.5 16.822-37.5 37.5v22.5h15v-22.5c0-12.407 10.093-22.5 22.5-22.5s22.5 10.093 22.5 22.5v245.431c0 19.401 14.811 35.408 33.72 37.309 3.791 5.01 6.858 10.484 9.124 16.321 3.003 7.736 4.525 15.888 4.525 24.229h15c0-10.206-1.865-20.184-5.542-29.657-1.755-4.522-3.912-8.858-6.426-12.991 10.262-3.772 18.433-11.908 22.251-22.148 6.621 5.869 15.325 9.436 24.847 9.436 20.678 0 37.5-16.822 37.5-37.5v-176.93c0-12.407 10.094-22.5 22.5-22.5 12.407 0 22.5 10.093 22.5 22.5v276.281l-20.686 62.059-55.935 9.282 2.456 14.798 51.665-8.573v52.153h-60.393v15h75.393v-74.783l22.5-67.502v-278.715zm-135 191.931c0 12.406-10.094 22.5-22.5 22.5s-22.5-10.093-22.5-22.5v-90c0-12.407 10.093-22.5 22.5-22.5s22.5 10.093 22.5 22.5zm60-15c0 12.406-10.093 22.5-22.5 22.5-12.406 0-22.5-10.094-22.5-22.5v-67.5c0-12.407 10.094-22.5 22.5-22.5 12.407 0 22.5 10.093 22.5 22.5z"/><path d="m249.855 444.847 51.665 8.573 2.455-14.798-57.568-9.553-99.051-123.213-67.503-50.389 4.487-6.011c12.368-16.569 35.911-19.988 52.482-7.619l66.327 49.511h24.991v-15h-15v-201.348h-15v193.891l-52.345-39.074c-23.199-17.316-56.16-12.531-73.476 10.667l-13.459 18.03 77.998 58.224 97.998 121.903v73.359h75.393v-15h-60.393v-52.153z"/><path d="m325.248 497h15v15h-15z"/></g></g></svg>