<svg id="Capa_1" enable-background="new 0 0 512 512" height="512" viewBox="0 0 512 512" width="512" xmlns="http://www.w3.org/2000/svg"><g><g><g clip-rule="evenodd" fill-rule="evenodd"><path d="m374.982 403.739 44.999-157.5-30-139.657-148.632-99.082h-87.136l-.486 14.992c-.801 24.729 18.786 46.037 43.519 46.433l29.694.476 86.166 77.161-1.214 104.244-56.913 30.78h-52.499l-44.283-53.66 3.719-14.223c6.258-23.935-8.214-48.661-32.151-54.92l-14.512-3.795-22.968 87.831 46.663 88.714 70.249 72.203v100.764h165.786v-100.761z" fill="#fbf2e2"/><path d="m254.98 281.587 56.912-30.78 1.214-104.244h-53.963l-15 22.5v82.525z" fill="#fbf2e2"/><path d="m254.98 281.587 56.912-30.78 1.214-104.244h-33.727l11.11 9.949-.941 80.8-42.099 23.427z" fill="#f7e0ba"/><path d="m218.459 61.902 94.647 84.661-1.214 104.244 20.66-11.173 3.054-100.571-86.166-77.161zm-84.05 98.373-19.625 75.046 46.663 88.714 70.249 72.203v108.262h-22.5v-100.761l-70.249-72.203-46.663-88.714 22.968-87.831c6.125 1.6 13.302 3.051 19.157 5.284z" fill="#f7e0ba"/><path d="m176.713 7.5h-22.5l-.486 14.992c-.801 24.729 18.786 46.037 43.519 46.433 0 0-22.007-15.977-21.019-46.433z" fill="#f7e0ba"/></g><g><path d="m365.326 170.36-3.15-14.666 14.666-3.15 3.15 14.666zm-6.301-29.331-3.15-14.666 14.666-3.15 3.15 14.666z" fill="#fff"/></g></g><g><path d="m427.708 246.496-31.033-144.466-153.055-102.03h-38.338v15h33.796l144.21 96.133 28.967 134.847-43.181 151.137-25.713 4.266 2.455 14.798 21.666-3.595v84.414h-52.893v15h67.893v-107.211z"/><path d="m284.589 497h15v15h-15z"/><path d="m216.696 412.586 21.665 3.595 2.456-14.798-27.963-4.64-67.774-69.66-44.803-85.179 20.334-77.761 7.256 1.897c20.004 5.231 32.023 25.762 26.792 45.767l-4.689 17.935 48.975 59.345h57.933l88.511-47.869-7.136-13.194-18.714 10.121 1.105-94.898-90.787-81.298-32.492-.521c-9.704-.156-18.823-4.203-25.675-11.395-6.977-7.324-10.792-17.273-10.468-27.296l.25-7.735h28.806v-15.002h-43.328l-.721 22.25c-.454 14.016 4.867 27.914 14.6 38.129 9.648 10.127 22.538 15.826 36.295 16.046l26.896.432 69.467 62.207h-38.357l-18.486 27.729v86.109l7.653 21.187h-38.281l-39.591-47.975 2.748-10.51c7.323-28.007-9.503-56.751-37.509-64.074l-21.768-5.692-25.602 97.901 48.522 92.25 68.881 70.798v105.213h67.893v-15h-52.893v-84.414zm34.947-241.252 11.514-17.271h42.361l-.507 43.502-17.013-10.859-8.07 12.644 24.877 15.879-.362 31.082-45.369 24.537-7.431-20.571z"/></g></g></svg>