<svg id="Capa_1" enable-background="new 0 0 512 512" height="512" viewBox="0 0 512 512" width="512" xmlns="http://www.w3.org/2000/svg"><g><g><path clip-rule="evenodd" d="m7.5 204.33v121.374l69.061 67.667v111.129h133.873v-111.129l16.661-49.985v-205.489c0-12.215-9.997-22.215-22.215-22.215s-22.215 9.996-22.215 22.215v-22.956c0-12.218-9.996-22.215-22.215-22.215-12.218 0-22.215 9.997-22.215 22.215v-16.661c0-12.219-9.996-22.215-22.215-22.215s-22.215 9.998-22.215 22.215v16.661c0-12.214-9.996-22.215-22.215-22.215s-22.215 9.997-22.215 22.215v116.628c0-14.975-12.263-27.239-27.239-27.239zm497 0v121.374l-69.06 67.667v111.129h-133.874v-111.129l-16.661-49.985v-205.489c0-12.215 9.997-22.215 22.215-22.215s22.215 9.996 22.215 22.215v-22.956c0-12.218 9.996-22.215 22.215-22.215s22.215 9.997 22.215 22.215v-16.661c0-12.219 9.996-22.215 22.215-22.215s22.215 9.998 22.215 22.215v16.661c0-12.214 9.996-22.215 22.215-22.215 12.218 0 22.215 9.997 22.215 22.215v116.628c0-14.975 12.263-27.239 27.239-27.239z" fill="#fbf2e2" fill-rule="evenodd"/><path clip-rule="evenodd" d="m7.5 204.33v121.374l69.061 67.667v111.129h22.5v-107.396l13.628 2.261-82.689-81.161v-112.707c-6.32-1.921-15.777-1.167-22.5-1.167zm208.629-85.564c-14.552-8.612-33.464 1.846-33.464 19.133v114.355h22.5v-114.355c-.001-8.12 4.415-15.258 10.964-19.133zm107.937 385.734h-22.5v-111.129l-16.661-49.985v-205.489c0-17.286 18.914-27.745 33.466-19.133-6.549 3.876-10.966 11.014-10.966 19.133v205.489l16.661 49.985zm161.061-299.753c-12.739 2.261-22.499 13.462-22.5 26.822v82.456h22.5zm-33.466-108.939c-14.552-8.612-33.464 1.846-33.464 19.133v137.291h22.5v-137.291c0-8.12 4.416-15.258 10.964-19.133zm-44.43-16.661c-14.552-8.612-33.464 1.846-33.464 19.133v153.974h22.5v-153.974c-.001-8.12 4.415-15.258 10.964-19.133zm-44.431 16.661c-14.552-8.612-33.464 1.846-33.464 19.133v137.291h22.5v-137.291c-.001-8.12 4.415-15.258 10.964-19.133zm-191.102.022c-14.552-8.612-33.464 1.846-33.464 19.133v137.291h22.5v-137.291c0-8.12 4.416-15.258 10.964-19.133zm-44.431-16.684c-6.548 3.875-10.964 11.013-10.964 19.133v153.974h-22.5v-153.974c0-17.286 18.912-27.744 33.464-19.133zm-44.43 16.662c-6.548 3.875-10.964 11.013-10.964 19.133v165.762h-22.5v-165.762c0-17.287 18.912-27.745 33.464-19.133z" fill="#f7e0ba" fill-rule="evenodd"/><g><path d="m433.257 330.749h-15v-15h15zm-228.662-3.496h-15v-15h15zm0-30h-15v-15h15z" fill="#fff"/></g><g><path d="m263.5 75h-15v-15h15zm30-30h-15v-15h15zm-60 0h-15v-15h15zm30-30h-15v-15h15z" fill="#faef93"/></g></g><g><path d="m204.879 108.182c-5.403 0-10.474 1.449-14.844 3.98-1.405-15.087-14.138-26.937-29.586-26.937-5.856 0-11.322 1.703-15.929 4.639-3.638-12.3-15.038-21.3-28.502-21.3s-24.865 9-28.503 21.3c-4.606-2.937-10.071-4.639-15.928-4.639-16.385 0-29.715 13.33-29.715 29.715v22.5h15v-22.5c0-8.114 6.602-14.715 14.715-14.715s14.715 6.601 14.715 14.715v137.313h15v-153.973c0-8.114 6.602-14.715 14.716-14.715 8.113 0 14.715 6.601 14.715 14.715v153.974h15v-137.313c0-8.114 6.602-14.715 14.716-14.715 8.113 0 14.715 6.601 14.715 14.715v137.313h15v-114.357c0-8.114 6.601-14.715 14.715-14.715s14.716 6.601 14.716 14.715v204.271l-14.848 44.543-31.668 5.255 2.455 14.798 27.399-4.546v94.782h-118.872v-94.782l27.4 4.547 2.455-14.798-33.795-5.607-65.121-63.807.001-110.723h7.134c10.884 0 19.738 8.855 19.738 19.739v82.456h15v-25.858l16.668-.081c26.488 0 48.038 21.55 48.038 48.038h15c0-34.759-28.278-63.038-63.074-63.038l-16.632.08v-120.726h-15v50.565c-5.61-3.889-12.411-6.175-19.738-6.175h-22.134l-.001 132.025 69.061 67.667v115.478h148.873v-117.411l16.661-49.987v-206.705c0-16.385-13.33-29.715-29.716-29.715z"/><path d="m361.003 497h15v15h-15z"/><path d="m512 328.855-.001-132.026h-22.134c-7.328 0-14.128 2.287-19.738 6.175v-88.064c0-16.385-13.33-29.715-29.715-29.715-5.856 0-11.321 1.702-15.928 4.639-3.638-12.301-15.039-21.3-28.503-21.3s-24.864 9-28.502 21.3c-4.606-2.937-10.072-4.639-15.929-4.639-15.448 0-28.181 11.849-29.586 26.937-4.37-2.531-9.44-3.98-14.844-3.98-16.386 0-29.716 13.33-29.716 29.715v206.706l16.661 49.987v117.41h51.937v-15h-36.937v-94.782l27.399 4.546 2.455-14.798-31.668-5.255-14.848-44.543v-204.271c0-8.114 6.602-14.715 14.716-14.715s14.715 6.601 14.715 14.715v114.357h15v-137.313c0-8.114 6.602-14.715 14.715-14.715 8.114 0 14.716 6.601 14.716 14.715v137.313h15v-153.974c0-8.114 6.602-14.715 14.715-14.715 8.114 0 14.716 6.601 14.716 14.715v153.974h15v-137.313c0-8.114 6.602-14.715 14.715-14.715s14.715 6.601 14.715 14.715v158.225l-16.668-.08c-34.76 0-63.038 28.279-63.038 63.038h15c0-26.488 21.55-48.038 48.002-48.038l16.704.081v25.858h15v-82.456c0-10.884 8.854-19.739 19.738-19.739h7.134l.002 110.723-65.121 63.807-33.795 5.607 2.455 14.798 27.4-4.547v94.782h-36.937v15h51.937v-115.477z"/></g></g></svg>