<svg id="Capa_1" enable-background="new 0 0 512.049 512.049" height="512" viewBox="0 0 512.049 512.049" width="512" xmlns="http://www.w3.org/2000/svg"><g><g><g clip-rule="evenodd" fill-rule="evenodd"><path d="m42.245 402.806 94.662 94.663 232.375-232.375 47.126-23.564 81.664-81.664c8.619-8.619 8.619-22.798 0-31.417-8.622-8.622-22.72-8.64-31.364-.052l10.877-10.877c8.64-8.64 8.64-22.777 0-31.418-8.63-8.63-22.746-8.64-31.389-.029l6.449-6.449c8.64-8.64 8.64-22.777 0-31.417-9.651-9.651-23.339-8.076-32.592 1.174 8.637-8.637 8.64-22.777 0-31.417s-22.777-8.639-31.417 0l-20.781 20.783-31.82-10.607-54.006 54.005-7.41 88.286z" fill="#fbf2e2"/><path d="m350.687 283.689-94.662 94.662 119.117 119.117 94.662-94.663zm-255.046-42.159-81.664-81.664c-4.05-4.05-6.201-9.312-6.453-14.649v-2.12c.252-5.336 2.402-10.597 6.453-14.648 8.622-8.622 22.72-8.64 31.364-.052l-10.876-10.877c-8.64-8.64-8.64-22.777 0-31.418 8.63-8.63 22.746-8.64 31.389-.029l-6.449-6.449c-8.64-8.64-8.64-22.777 0-31.417 9.651-9.651 23.339-8.076 32.592 1.174-8.637-8.637-8.64-22.777 0-31.417s22.777-8.639 31.417 0l20.782 20.782 31.819-10.607 54.006 54.005 7.41 88.286 18.595 18.595-94.662 94.662-18.595-18.595z" fill="#fbf2e2"/><path d="m42.245 402.806 94.662 94.663 15.15-15.15-94.662-94.662zm103.207-135.027 15.91 15.909 94.662-94.662-15.91-15.91zm205.235 15.91 15.91 15.91-94.663 94.662-15.909-15.91z" fill="#f7e0ba"/></g><g><path d="m402.409 161.679-10.606-10.606 10.606-10.606 10.607 10.606zm-292.769 0-10.607-10.606 10.607-10.606 10.606 10.606zm271.557-21.213-10.607-10.606 10.607-10.606 10.606 10.606zm-250.345 0-10.606-10.606 10.606-10.606 10.607 10.606z" fill="#fff"/></g></g><g><path d="m420.85 247.694 82.524-82.524c5.594-5.593 8.675-13.054 8.675-21.009.001-7.957-3.079-15.419-8.674-21.015-4.236-4.236-9.442-6.923-14.91-8.062 5.542-11.124 3.683-25.024-5.577-34.285-4.753-4.753-10.854-7.692-17.458-8.469 2.964-10.099.47-21.475-7.481-29.426-5.596-5.595-13.058-8.676-21.013-8.676-.975 0-1.941.046-2.898.138.181-7.838-2.713-15.735-8.681-21.704-11.584-11.585-30.437-11.586-42.024 0l-17.504 17.504-31.82-10.606-59.224 59.224-7.41 88.286-11.351 11.351-11.351-11.351-7.41-88.286-59.223-59.224-31.819 10.607-17.504-17.504c-11.586-11.586-30.438-11.585-42.024 0-5.968 5.968-8.861 13.865-8.681 21.704-.957-.092-1.924-.138-2.898-.138-7.955 0-15.417 3.081-21.013 8.676-7.951 7.952-10.445 19.327-7.481 29.426-6.604.777-12.705 3.716-17.458 8.469-9.26 9.26-11.119 23.161-5.577 34.285-5.468 1.139-10.674 3.826-14.91 8.062-5.596 5.594-8.676 13.057-8.675 21.013 0 7.955 3.081 15.417 8.674 21.009l35.527 35.528 10.607-10.606-35.528-35.529c-2.76-2.76-4.28-6.455-4.28-10.403-.001-3.95 1.52-7.646 4.281-10.407 5.708-5.708 14.974-5.736 20.719-.09l17.314 17.314 10.607-10.606-28.153-28.153c-5.737-5.738-5.737-15.073 0-20.811 5.708-5.71 14.982-5.738 20.728-.083l28.235 28.236 10.607-10.606-34.63-34.631c-5.737-5.737-5.737-15.073 0-20.811 2.762-2.762 6.457-4.283 10.405-4.283s7.643 1.521 10.404 4.283l34.631 34.631 10.607-10.606-33.455-33.457c-5.737-5.737-5.737-15.073 0-20.81 5.737-5.738 15.074-5.736 20.81 0l66.528 66.528 10.607-10.606-37.166-37.166 15.91-5.303 48.786 48.786 7.41 88.286 15.232 15.233-84.056 84.056-14.153-14.152-47.124-23.563-34.668-34.667-10.606 10.604 36.39 36.389 47.125 23.564 12.431 12.431-119.117 119.117 105.269 105.269 119.117-119.117 119.117 119.118 36.725-36.725-10.607-10.606-26.117 26.118-108.51-108.511 84.055-84.055 108.511 108.511-26.118 26.118 10.607 10.606 36.724-36.724-119.119-119.119 12.431-12.431zm-283.943 239.168-84.056-84.056 229.012-229.013 7.41-88.286 48.786-48.786 15.91 5.303-37.166 37.166 10.607 10.606 66.528-66.528c5.735-5.736 15.072-5.738 20.81 0 5.737 5.737 5.737 15.073 0 20.81h.001l-33.457 33.457 10.608 10.607 34.631-34.631c2.762-2.762 6.456-4.283 10.404-4.283s7.644 1.521 10.405 4.283c5.737 5.737 5.737 15.073 0 20.811l-34.631 34.631 10.607 10.606 28.235-28.236c5.744-5.654 15.018-5.627 20.728.083 5.737 5.738 5.737 15.073 0 20.811l-28.153 28.153 10.607 10.606 17.311-17.311c5.745-5.65 15.015-5.622 20.723.086 2.762 2.761 4.282 6.457 4.281 10.407 0 3.949-1.521 7.644-4.281 10.404l-80.804 80.804-47.125 23.563z"/><path d="m414.973 442.637h15v15h-15z" transform="matrix(.707 -.707 .707 .707 -194.557 430.604)"/></g></g></svg>