<svg id="Capa_1" enable-background="new 0 0 512.034 512.034" height="512" viewBox="0 0 512.034 512.034" width="512" xmlns="http://www.w3.org/2000/svg"><g><g><g clip-rule="evenodd" fill-rule="evenodd"><path d="m236.945 200.56 85.171 31.199-115.652-210.703c-6.298-11.473-19.897-16.907-31.725-11.289-11.828 5.619-16.781 19.836-11.289 31.725z" fill="#fbf2e2"/><path d="m236.945 200.56 85.171 31.199-16.387-29.855-81.982-29.91z" fill="#f7e0ba"/><path d="m287.001 167.784 35.115 63.975 38.979 14.278-60.318-212.584c-3.572-12.59-16.507-20.231-29.157-16.845-12.651 3.386-20.189 16.495-16.845 29.157z" fill="#fbf2e2"/><path d="m305.729 201.904 16.387 29.855 38.978 14.278-7.575-26.698z" fill="#f7e0ba"/><path d="m313.473 78.197 47.622 167.84v-188.774c0-13.091-10.715-23.81-23.811-23.81s-23.811 10.714-23.811 23.81z" fill="#fbf2e2"/><path d="m353.519 219.339 7.575 26.698v-23.934z" fill="#f7e0ba"/><path d="m166.343 294.041c9.305-2.316 17.658-8.295 22.683-17.264l5.741-10.245 55.216-6.341 54.177 35.082v61.564l-62.898 29.007h-41.94l-20.584-45.304v-19.007c0-10.898-4.803-20.733-12.395-27.492zm182.769 171.412 35.949-125.823-23.966-93.593-124.15-45.477-71.855 20.879-35.452 63.27-2.883 64.175 21.812 70.872 68.103 45.698v39.082h132.442z" fill="#fbf2e2"/><path d="m142.244 262.211-12.606 22.498h12.275c9.349 0 17.915 3.535 24.429 9.333 7.506-1.869 14.393-6.121 19.413-12.404-11.171-12.26-26.883-19.334-43.511-19.427z" fill="#f7e0ba"/><path d="m239.043 253.913 65.118 41.36v61.564l-77.378 36.507h36.679l63.198-29.008v-76.564l-57.072-37.372zm-109.405 30.796h12.275l-.159 64.175 21.812 55.872 90.602 60.697h-15v39.082h-22.5v-39.082l-68.103-45.698-21.812-70.872z" fill="#f7e0ba"/></g><g><path d="m339.847 314.229-3.721-14.531 14.531-3.721 3.721 14.531zm-7.442-29.062-3.721-14.531 14.531-3.721 3.721 14.531z" fill="#fff"/></g></g><g><path d="m275.391 497.034h15v15h-15z"/><path d="m368.594 245.091v-187.828c0-17.265-14.046-31.311-31.311-31.311-11.232 0-21.097 5.948-26.623 14.856l-2.668-9.403c-4.697-16.552-21.883-26.441-38.312-22.042-16.621 4.448-26.561 21.637-22.157 38.317l16.591 62.822-51.076-93.054c-8.481-15.454-26.332-21.668-41.518-14.455-15.427 7.329-22.102 26.011-14.879 41.645l10.717 23.195 13.617-6.292-10.717-23.194c-3.791-8.206-.337-17.987 7.698-21.805 7.902-3.754 17.331-.262 21.933 8.123l106.03 193.174-63.471-23.25-55.18-119.43-13.617 6.292 52.829 114.34-66.432 19.303-37.822 67.501-3.021 67.252 22.977 74.656 66.989 44.95v42.582h51.221v-15h-36.222v-24.082h30v-15h-35.216l-64-42.944-20.648-67.088 2.503-55.712h5.104c16.169 0 29.325 13.155 29.325 29.325v20.63l23.254 51.181h48.416l68.752-31.707v-70.443l-59.859-38.762-61.702 7.086-7.617 13.592c-3.27 5.835-8.351 10.208-14.526 12.575-7.185-5.235-15.997-8.364-25.521-8.475l27.695-49.428 66.544-19.335 118.132 43.273 22.483 87.801-35.679 124.88v32.631h-36.221v15h51.221v-45.531l36.218-126.766zm-173.025 35.353 3.866-6.899 48.731-5.596 48.495 31.403v52.685l-57.044 26.308h-35.464l-17.914-39.429v-17.382c0-9.033-2.715-17.442-7.373-24.457 6.946-3.881 12.777-9.626 16.703-16.633zm125.404-223.181c0-8.994 7.317-16.311 16.311-16.311s16.311 7.317 16.311 16.311v134.863l-32.622-114.973zm-26.956 107.717-31.991-121.13c-2.3-8.709 2.874-17.68 11.533-19.997 8.556-2.29 17.53 2.935 20.002 11.647l56.303 198.436-22.528-8.252z"/></g></g></svg>