<svg id="Capa_1" enable-background="new 0 0 512 512" height="512" viewBox="0 0 512 512" width="512" xmlns="http://www.w3.org/2000/svg"><g><g><g clip-rule="evenodd" fill-rule="evenodd"><path d="m114.329 192.96-14.666 206.074-46.116 7.5v97.966h114.971l55.734-71.227-8.016-184.046-15.83-.592c-16.879-.631-31.196 13.954-31.343 31.079v-75.275l59.718-59.718c26.427-26.427-6.608-59.462-33.052-33.053zm283.342 0 14.666 206.074 46.116 7.5v97.966h-114.971l-55.734-71.227 8.016-184.046 15.83-.592c16.879-.631 31.197 13.954 31.343 31.079v-75.275l-59.718-59.718c-26.427-26.427 6.608-59.462 33.052-33.053z" fill="#fbf2e2"/><path d="m169.063 204.439v40.933l60.925-60.925c11.086-11.086 10.51-29.342-1.207-39.727zm173.874 0v40.933l-60.925-60.925c-11.086-11.086-10.51-29.342 1.207-39.727z" fill="#f7e0ba"/><path d="m169.063 396.047v-191.608l59.718-59.718c12.402-12.402 11.708-26.259 4.745-34.745l-86.963 86.964v199.107zm173.874 0v-191.608l-59.718-59.718c-12.402-12.402-11.708-26.259-4.745-34.745l86.963 86.964v199.107zm.545 108.453h114.971v-22.5h-103.043l-45.162-56.227 8.199-176.553c-6.338-1.333-16.051-.241-22.684.007l-8.016 184.046zm-174.965 0h-114.971v-22.5h103.043l45.162-56.227-8.2-176.553c6.338-1.333 16.051-.241 22.684.007l8.016 184.046z" fill="#f7e0ba"/></g><g><path d="m140.499 353.494-14.962-1.064 1.065-14.962 14.962 1.065zm231.002 0-1.064-14.962 14.962-1.064 1.064 14.962zm-2.13-29.925-1.064-14.962 14.962-1.064 1.064 14.962zm-226.743 0-14.962-1.064 1.064-14.962 14.962 1.064z" fill="#fff"/></g><g><path d="m263.5 75h-15v-15h15zm30-30h-15v-15h15zm-60 0h-15v-15h15zm30-30h-15v-15h15z" fill="#faef93"/></g></g><g><path d="m393.468 497h15v15h-15z"/><path d="m419.397 392.584-14.444-202.951-83.382-83.272c-16.507-16.484-36.121-14.127-46.963-3.277-9.674 9.681-12.581 26.341-1.365 41.535-4.092 5.625-6.464 12.436-6.676 19.494-.288 9.56 3.409 18.904 10.142 25.637l58.729 58.729v.696c-6.966-5.528-15.401-8.367-24.124-8.035l-22.741.85-8.437 193.722 59.692 76.288h38.64v-15h-31.332l-51.775-66.168 7.594-174.369 8.917-.333c5.861-.227 11.546 2.043 16.036 6.368 4.732 4.559 7.468 10.841 7.528 17.267v116.282h15v-116.068h.001c0-.091 0-.183-.001-.275v-78.372l-61.915-61.915c-10.026-10.026-8.884-20.147-3.304-25.73 5.585-5.589 15.713-6.739 25.753 3.287l79.417 79.313 14.323 201.244-13.976 28.181 13.438 6.664 12.423-25.05 34.356 5.588v84.086h-27.485v15h42.485v-111.845zm-135.591-236.669 51.63 51.631v19.721l-48.122-48.122c-3.877-3.877-5.921-9.055-5.755-14.58.094-3.086.868-6.024 2.247-8.65z"/><path d="m237.391 103.084c-10.843-10.85-30.457-13.208-46.963 3.277l-35.392 35.346 10.6 10.613 35.392-35.346c10.04-10.026 20.169-8.875 25.753-3.287 5.58 5.583 6.722 15.705-3.304 25.73l-61.915 61.915v78.372c-.001.092-.001.184-.001.275l.001 116.067h15v-116.281c.06-6.426 2.795-12.708 7.528-17.267 4.49-4.325 10.183-6.593 16.035-6.368l8.918.333 7.594 174.369-51.774 66.168h-103.817v-84.086l34.356-5.588 12.423 25.05 13.438-6.664-13.976-28.181 14.323-201.244 33.41-33.366-10.6-10.613-37.375 37.325-14.443 202.951-46.556 7.571v111.845h126.125l59.693-76.287-8.437-193.722-22.742-.85c-8.725-.327-17.157 2.507-24.123 8.035v-.696l58.729-58.729c6.733-6.733 10.429-16.077 10.142-25.637-.212-7.058-2.584-13.869-6.676-19.494 11.215-15.195 8.309-31.855-1.366-41.536zm-12.706 76.06-48.122 48.122v-19.721l51.63-51.631c1.38 2.626 2.154 5.564 2.247 8.65.166 5.525-1.878 10.703-5.755 14.58z"/></g></g></svg>