<svg id="Capa_1" enable-background="new 0 0 512 512" height="512" viewBox="0 0 512 512" width="512" xmlns="http://www.w3.org/2000/svg"><g><g><g clip-rule="evenodd" fill-rule="evenodd"><path d="m91.254 399.532c-33.475-38.391-53.754-88.589-53.754-143.532 0-120.684 97.816-218.5 218.5-218.5 54.943 0 105.141 20.279 143.532 53.754zm329.491-287.065-308.278 308.278c38.391 33.477 88.59 53.755 143.533 53.755 120.684 0 218.5-97.816 218.5-218.5 0-54.943-20.278-105.142-53.755-143.533zm-164.745 392.033c137.243 0 248.5-111.257 248.5-248.5s-111.257-248.5-248.5-248.5-248.5 111.257-248.5 248.5 111.257 248.5 248.5 248.5z" fill="#9eb6f4"/><path d="m160.356 372.856 54.907 53.8 36.128 5.994h39.118l36.128-5.994 39.16-49.986v-209.255z" fill="#fbf2e2"/><path d="m361.994 128.792c-4.002-5.916-10.773-9.825-18.412-9.825-12.218 0-22.215 9.996-22.215 22.215v-22.956c0-12.218-9.996-22.215-22.215-22.215-12.218 0-22.215 9.997-22.215 22.215v-16.661c0-12.219-9.996-22.215-22.215-22.215-12.218 0-22.215 9.998-22.215 22.215v16.661c0-12.214-9.996-22.215-22.215-22.215s-22.215 9.997-22.215 22.215v146.628c0-14.975-12.263-27.239-27.239-27.239h-14.634l-.001 106.969z" fill="#fbf2e2"/><path d="m361.994 128.792c-4.946-7.31-13.682-11.038-22.346-9.473-64.443 64.443-128.957 128.957-193.445 193.445v31.82zm-201.638 244.064 205.441-205.441v31.819l-174.255 174.255 31.221 30.667 28.627 5.995h39.119l28.627-5.995 46.66-57.485v30l-39.16 49.985-36.127 5.995h-39.119l-36.127-5.995z" fill="#f7e0ba"/></g><g><path d="m343.297 360.538h-15v-15h15zm0-30h-15v-15h15z" fill="#fff"/></g></g><g><path d="m256 30c-60.371 0-117.126 23.507-159.81 66.19-42.683 42.684-66.19 99.439-66.19 159.81 0 54.615 19.746 107.34 55.602 148.461l5.278 6.053 319.634-319.635-6.053-5.278c-41.121-35.855-93.846-55.601-148.461-55.601zm-75.424 269.604-26.873 26.873.001-81.363h7.133c10.884 0 19.738 8.855 19.739 19.739zm133.291-133.291-29.431 29.431v-77.518c0-8.113 6.602-14.715 14.715-14.715s14.715 6.602 14.715 14.715v48.087zm-44.431 44.431-29.431 29.431v-138.61c0-8.113 6.602-14.715 14.716-14.715s14.715 6.602 14.715 14.715zm59.431-59.431v-10.13c0-8.114 6.601-14.716 14.715-14.716 2.813 0 5.52.817 7.84 2.291zm33.29-33.29c-5.212-4.19-11.734-6.556-18.575-6.556-5.403 0-10.474 1.449-14.844 3.98-1.406-15.087-14.138-26.937-29.586-26.937-5.856 0-11.322 1.702-15.928 4.639-3.638-12.3-15.038-21.3-28.502-21.3s-24.865 9-28.502 21.3c-4.606-2.936-10.073-4.639-15.928-4.639-16.385 0-29.715 13.33-29.715 29.715v22.5h15v-22.5c0-8.113 6.601-14.715 14.715-14.715s14.714 6.602 14.714 14.715v136.949l-29.43 29.43v-128.878h-15v80.556c-5.609-3.887-12.413-6.167-19.739-6.167h-22.133l-.001 111.363-46.964 46.964c-30.197-37.423-46.739-84.14-46.739-132.442 0-56.364 21.947-109.353 61.797-149.203 39.85-39.851 92.838-61.797 149.203-61.797 48.301 0 95.018 16.542 132.441 46.738z"/><path d="m421.173 431.479 10.283 10.92c3.743-3.524 7.421-7.203 10.935-10.936l-10.922-10.281c-3.307 3.513-6.771 6.977-10.296 10.297z"/><path d="m437.02 74.98c-48.353-48.351-112.64-74.98-181.02-74.98s-132.667 26.629-181.02 74.98c-48.351 48.352-74.98 112.64-74.98 181.02s26.629 132.668 74.98 181.02c48.353 48.351 112.64 74.98 181.02 74.98 59.794 0 117.979-21.06 163.836-59.301l-9.606-11.52c-43.167 35.997-97.939 55.821-154.23 55.821-64.374 0-124.894-25.068-170.413-70.587s-70.587-106.039-70.587-170.413 25.068-124.894 70.587-170.413 106.039-70.587 170.413-70.587 124.894 25.068 170.413 70.587 70.587 106.039 70.587 170.413c0 56.314-19.843 111.109-55.874 154.293l11.518 9.609c38.276-45.874 59.356-104.083 59.356-163.902 0-68.38-26.629-132.668-74.98-181.02z"/><path d="m256 482c60.371 0 117.126-23.507 159.81-66.19 42.683-42.684 66.19-99.439 66.19-159.81 0-54.619-19.747-107.344-55.602-148.462l-5.278-6.052-319.634 319.634 6.052 5.277c41.118 35.857 93.843 55.603 148.462 55.603zm28.436-196.462v-26.155l29.431-29.431v55.586h15v-70.586l29.431-29.431v188.56l-35.766 45.651-32.641 5.417h-37.882l-33.186-5.507-47.806-46.842 98.419-98.419v11.155h15zm-124.026 97.871 51.293 50.258 39.069 6.483h40.355l39.614-6.574 42.556-54.318v-208.736l46.964-46.964c30.197 37.42 46.739 84.136 46.739 132.442 0 56.364-21.947 109.353-61.797 149.203-39.85 39.851-92.838 61.797-149.203 61.797-48.305 0-95.021-16.542-132.442-46.738z"/></g></g></svg>