<svg id="Capa_1" enable-background="new 0 0 512 512" height="512" viewBox="0 0 512 512" width="512" xmlns="http://www.w3.org/2000/svg"><g><g><path clip-rule="evenodd" d="m235.259 52.5v225.486l-63.07-51.469c-19.167-15.641-47.672-12.76-63.316 6.407l-9.485 11.621 70.331 57.406 94.755 128.926v73.622h180.76l.025-73.622 29.999-82.501v-142.499c0-16.498-13.5-30-30-30s-30 13.5-30 30v-15c0-16.5-13.5-30-30-30s-30 13.5-30 30v-153.378c0-16.49-13.5-30-30-30s-30 13.5-30 30v15c0-16.5-13.5-30-30-30-16.499.001-29.999 13.501-29.999 30.001z" fill="#fbf2e2" fill-rule="evenodd"/><path clip-rule="evenodd" d="m235.234 52.5v247.986h22.5v-255.486c0-13.439 6.194-20.85 7.5-22.5-16.5 0-30 13.5-30 30zm180 153.378v30.001h22.5v-37.5c0-13.439 6.194-20.85 7.5-22.5-16.5-.001-30 13.498-30 29.999zm-60-15v37.5h22.5v-45c0-13.439 6.194-20.85 7.5-22.5-16.5 0-30 13.5-30 30zm-59.999-153.378v198.377h22.5v-205.877c0-13.439 6.194-20.85 7.5-22.5-16.501 0-30 13.5-30 30zm-183.044 191.765 80.003 65.187 101.805 138.376-7.05 1.784v69.888h-22.5v-73.622l-94.755-128.926-70.331-57.406c4.017-4.922 8.34-10.877 12.828-15.281z" fill="#f7e0ba" fill-rule="evenodd"/><g><path d="m452.735 325.878h-15v-15h15zm0-30h-15v-15h15z" fill="#fff"/></g><g><path d="m127.322 182.399h-15v-57.45h15zm72.449-72.45h-57.45v-15h57.45zm-102.449 0h-57.45v-15h57.45zm30-29.999h-15v-57.45h15z" fill="#d571ab"/></g><g><path d="m119.822 193.006-37.123-37.123 10.606-10.607 26.517 26.518 26.517-26.518 10.606 10.607zm53.432-53.433-10.606-10.607 26.517-26.517-26.517-26.516 10.606-10.607 37.123 37.123zm-106.865 0-37.123-37.124 37.123-37.123 10.606 10.607-26.517 26.516 26.517 26.517zm79.949-79.95-26.517-26.517-26.516 26.517-10.606-10.607 37.123-37.122 37.123 37.122z" fill="#d571ab"/></g></g><g><path d="m482.734 205.878c0-20.678-16.822-37.5-37.5-37.5-9.522 0-18.227 3.567-24.847 9.436-5.315-14.255-19.068-24.436-35.153-24.436-8.436 0-16.228 2.801-22.5 7.52v-123.398c0-20.678-16.823-37.5-37.5-37.5-16.085 0-29.837 10.181-35.153 24.436-6.621-5.869-15.325-9.436-24.847-9.436-20.677 0-37.5 16.822-37.5 37.5v22.5h15v-22.5c0-12.406 10.093-22.5 22.5-22.5s22.5 10.094 22.5 22.5v183.377h15v-198.377c0-12.406 10.093-22.5 22.5-22.5s22.5 10.094 22.5 22.5v190.878h15v-37.5c0-12.406 10.093-22.5 22.5-22.5s22.5 10.094 22.5 22.5v45h15v-30c0-12.406 10.093-22.5 22.5-22.5s22.5 10.094 22.5 22.5v141.178l-28.05 77.141-26.069 4.326 2.455 14.797 21.665-3.594v57.274h-60.38v15h75.38v-79.801l30-82.501v-143.82z"/><path d="m271.949 439.725 21.666 3.595 2.455-14.797-27.384-4.544-93.511-127.235-65.259-53.266 4.743-5.811c13.074-16.017 36.742-18.412 52.764-5.339l60.312 49.218v18.94h15v-210.487h-15v172.187l-50.828-41.479c-22.429-18.304-55.565-14.949-73.869 7.476l-14.227 17.432 75.404 61.545 92.734 126.178v78.662h75.406v-15h-60.406z"/><path d="m347.355 497h15v15h-15z"/></g></g></svg>