<svg id="Capa_1" enable-background="new 0 0 511.971 511.971" height="512" viewBox="0 0 511.971 511.971" width="512" xmlns="http://www.w3.org/2000/svg"><g><g><g clip-rule="evenodd" fill-rule="evenodd"><path d="m230.768 189.293-9.897 227.235 68.813 87.942h141.951v-120.954l-56.938-9.26-18.108-254.433-100.501-100.369c-32.65-32.607-73.438 8.181-40.808 40.81l73.732 73.732v92.938c-.182-21.143-17.859-39.149-38.698-38.37z" fill="#fbf2e2"/><path d="m213.789 109.313 75.222 75.222v-50.539l-73.732-73.732c-14.467 12.821-15.178 35.361-1.49 49.049z" fill="#f7e0ba"/><path d="m230.768 189.293-9.897 227.235 68.813 87.942h141.951v-22.5h-129.942l-58.323-72.942 9.871-220.452c-7.003-.327-15.346.451-22.473.717zm-24.178-167.718 104.921 104.921v244.072h-22.5v-236.572l-73.732-73.732c-13.405-13.406-14.412-28.185-8.689-38.689z" fill="#f7e0ba"/></g><g><path d="m324.239 193.512-1.064-14.962 14.963-1.064 1.064 14.962zm-2.13-29.925-1.064-14.961 14.961-1.066 1.066 14.963z" fill="#fff"/></g><g><path d="m109.959 383.093-37.124-37.123 37.124-37.124 10.606 10.607-26.516 26.517 26.517 26.516zm0-89.999-37.124-37.123 37.124-37.124 10.606 10.607-26.517 26.517 26.517 26.516zm0-89.999-37.124-37.123 37.124-37.123 10.606 10.607-26.516 26.516 26.516 26.516z" fill="#d571ab"/></g><g><path d="m170.892 353.47h-87.45v-15h87.449v15zm0-89.999h-87.45v-15h87.449v15zm0-89.999h-87.45v-15h87.449v15z" fill="#d571ab"/></g></g><g><path d="m228.485 414.088 9.475-217.559 12.633-.472c7.703-.312 15.195 2.679 21.086 8.354 6.164 5.938 9.735 14.123 9.832 22.503v143.652h15v-143.304h.002c0-.137-.001-.275-.002-.412v-95.961l-75.928-75.93c-13.238-13.237-11.588-26.743-4.08-34.257 7.515-7.519 21.029-9.181 34.286 4.058l44.943 44.884 10.6-10.613-44.943-44.884c-19.565-19.538-42.728-16.824-55.496-4.047-11.597 11.604-14.88 31.782-.724 50.031-5.327 6.854-8.425 15.327-8.69 24.128-.341 11.32 4.035 22.385 12.007 30.357l73.025 73.023v5.425c-8.769-8.174-19.92-12.423-31.478-11.997l-26.457.989-10.318 236.912 72.772 93.002h52.13v-15h-44.821zm-9.393-310.078c-5.134-5.135-7.84-11.989-7.62-19.3.147-4.901 1.594-9.519 4.166-13.482l65.873 65.874v29.325z"/><path d="m381.757 367.806-17.687-248.516-.198-2.794-46.926-46.864-10.599 10.614 42.961 42.904 17.763 249.602-17.467 35.224 13.438 6.664 15.915-32.093 45.179 7.348v107.076h-40.976v15h55.976v-134.834z"/><path d="m353.16 496.971h15v15h-15z"/></g></g></svg>