<svg id="Capa_1" enable-background="new 0 0 512.008 512.008" height="512" viewBox="0 0 512.008 512.008" width="512" xmlns="http://www.w3.org/2000/svg"><g><g><path clip-rule="evenodd" d="m266.789 27.99-76.249 228.078-43.497-68.81c-13.219-20.911-41.167-27.217-62.08-13.999l-12.68 8.014 48.501 76.744 48.989 152.317-31.483 94.173h190.62l12.32-36.853 54.609-68.733 45.181-135.147c5.231-15.646-3.292-32.732-18.94-37.964-15.649-5.232-32.733 3.291-37.964 18.94l4.756-14.226c5.232-15.649-3.291-32.732-18.941-37.964-15.649-5.232-32.732 3.291-37.964 18.94l48.63-145.464c5.228-15.639-3.291-32.732-18.941-37.964-15.649-5.231-32.733 3.292-37.964 18.941 5.232-15.649-3.291-32.732-18.94-37.964-15.427-5.158-32.657 3.067-37.963 18.941z" fill="#fbf2e2" fill-rule="evenodd"/><path clip-rule="evenodd" d="m266.789 27.99-83.382 249.417 20.235 6.773 85.646-256.19c3.527-10.55 14.053-18.109 15.464-18.941-15.427-5.158-32.657 3.067-37.963 18.941zm117.327 216.76-9.512 28.453 20.235 6.773 11.776-35.226c3.527-10.55 13.003-17.284 15.464-18.941-15.427-5.157-32.656 3.068-37.963 18.941zm-52.148-33.249-11.89 35.565 20.235 6.773 14.154-42.339c3.527-10.55 13.003-17.284 15.464-18.941-15.427-5.156-32.656 3.068-37.963 18.942zm-8.275-164.488c5.307-15.874 22.536-24.098 37.964-18.941-2.461 1.657-11.937 8.39-15.464 18.941l-65.162 194.915-20.235-6.773zm-235.138 124.204 54.729 86.8 51.988 161.617-6.384.823-28.098 84.05h-22.5l31.483-94.173-48.989-152.317-48.501-76.744c5.19-3.281 10.852-7.29 16.272-10.056z" fill="#f7e0ba" fill-rule="evenodd"/><g><path d="m381.635 370.449-14.227-4.756 4.756-14.227 14.227 4.756zm9.512-28.452-14.227-4.756 4.756-14.227 14.227 4.756z" fill="#fff"/></g><g><path d="m126.906 122.307h-15c0-52.471 42.688-95.158 95.159-95.158v15c-44.2 0-80.159 35.959-80.159 80.158z" fill="#d571ab"/></g><g><path d="m117.689 132.774-28.48-39.655 12.184-8.75 19.729 27.472 27.472-19.729 8.75 12.184zm71.798-59.983-12.283-8.609 19.414-27.696-27.695-19.414 8.609-12.283 39.979 28.025z" fill="#d571ab"/></g></g><g><path d="m424.458 218.697c-8.753-2.926-18.098-2.527-26.557 1.089-.514-15.211-10.331-29.235-25.592-34.339-8-2.673-16.279-2.487-23.724 0l39.125-117.033c6.556-19.611-4.066-40.899-23.677-47.455-11.625-3.885-23.839-1.737-33.225 4.744-.562-1.673-1.243-3.319-2.046-4.928-4.481-8.983-12.165-15.675-21.634-18.84-19.607-6.552-40.897 4.064-47.455 23.676l-7.676 22.961 14.227 4.756 7.676-22.961c3.934-11.766 16.71-18.138 28.473-14.205 5.669 1.895 10.274 5.912 12.968 11.311 2.69 5.393 3.132 11.481 1.243 17.146-.002.006-.004.011-.006.017l-62.896 188.142 14.227 4.756 62.896-188.142c3.934-11.766 16.707-18.139 28.473-14.205 11.767 3.934 18.14 16.706 14.206 28.473l-60.521 181.029 14.227 4.756 11.891-35.565c3.934-11.766 16.704-18.137 28.473-14.205 11.766 3.935 18.139 16.707 14.205 28.473l-14.268 42.679 14.227 4.756 9.512-28.452c1.895-5.669 5.911-10.273 11.311-12.967 5.396-2.693 11.493-3.134 17.162-1.238 11.767 3.934 18.139 16.706 14.205 28.473l-44.762 133.891-51.062 64.268-26.096-4.163-2.363 14.813 21.687 3.46-7.803 23.341h-67.409v15h78.211l13.614-40.722 54.609-68.734 45.6-136.399c6.556-19.612-4.065-40.9-23.676-47.457z"/><path d="m226.1 497.008h15v15h-15z"/><path d="m174.081 421.103 19.407 10.279 7.021-13.256-24.53-12.992-48.056-149.412-.291-.906-45.003-71.209 6.34-4.007c17.476-11.044 40.686-5.813 51.734 11.667l41.595 65.8-6.005 17.962 14.227 4.756 70.952-212.235-14.227-4.756-58.808 175.91-35.054-55.453c-15.469-24.469-47.96-31.794-72.428-16.331l-19.02 12.021 51.999 82.279 47.945 149.069-34.005 101.719h83.226v-15h-62.396z"/></g></g></svg>