<svg id="Capa_1" enable-background="new 0 0 512 512" height="512" viewBox="0 0 512 512" width="512" xmlns="http://www.w3.org/2000/svg"><g><g><g clip-rule="evenodd" fill-rule="evenodd"><path d="m37.5 154.75c-16.5 0-30 13.5-30 30s13.504 30 30 30h181c16.5 0 30 13.5 30 30 0 16.501-13.499 30-30 30 16.498 0 30 13.5 30 30s-13.499 30-30 30c16.5 0 30 13.5 30 30s-13.5 30-30 30h104.999l67.501-22.499h113.5v-180.786h-113.5l-61.559-74.215h-144.727v15c0 8.18 2.214 15.87 6.073 22.499h-153.287z" fill="#fbf2e2"/><path d="m248.5 244.75c0 16.501-13.499 30-30 30 16.498 0 30 13.5 30 30s-13.499 30-30 30c16.5 0 30 13.5 30 30s-13.5 30-30 30h22.5c16.5 0 30-13.5 30-30s-13.5-30-30-30c16.5 0 30-13.5 30-30s-13.502-30-30-30c18.917 0 29.871-14.454 29.871-31.083 0-28.917-26.121-36.417-52.371-36.417v7.5c16.45 0 30 13.506 30 30z" fill="#f7e0ba"/><path d="m151 214.75c-16.5 0-30 13.5-30 30 0 16.501 13.499 30 30 30h67.5c16.501 0 30-13.5 30-30s-13.5-30-30-30z" fill="#fbf2e2"/><path d="m218.5 274.75h-60c-16.5 0-30 13.5-30 30s13.5 30 30 30h60c16.501 0 30-13.5 30-30s-13.502-30-30-30z" fill="#fbf2e2"/><path d="m218.5 334.75h-45c-16.5 0-30 13.5-30 30s13.502 30 30 30h45c16.5 0 30-13.5 30-30s-13.5-30-30-30z" fill="#fbf2e2"/><path d="m37.5 154.75c-16.5 0-30 13.5-30 30s13.5 30 30 30h22.5c-16.5 0-30-13.5-30-30s13.5-30 30-30zm169.714-37.5h-22.5v15c0 24.634 20.149 45 45 45h22.5c-24.85 0-45-20.366-45-45zm-11.215 217.5h-15c-16.5 0-30-13.5-30-30s13.5-30 30-30h-7.5c-16.5 0-30-13.5-30-30s13.5-30 30-30h-22.499c-16.5 0-30 13.5-30 30 0 16.501 13.499 30 30 30h7.5c-16.5 0-30 13.5-30 30s13.5 30 30 30h15c-16.5 0-30 13.5-30 30s13.502 30 30 30h22.5c-16.498 0-30-13.5-30-30-.001-16.5 13.499-30 29.999-30z" fill="#f7e0ba"/></g><g><path d="m482 228.964h-15v-15h15zm-30 0h-15v-15h15z" fill="#fff"/></g></g><g><path d="m497 274.357h15v15h-15z"/><path d="m394.523 183.965-61.56-74.215h-155.75v22.5c0 5.212.774 10.244 2.195 15h-96.908v15h104.167c9.499 13.588 25.247 22.5 43.047 22.5h44.999v30c0 45.49 37.01 82.5 82.5 82.5v-15c-37.22 0-67.5-30.28-67.5-67.5v-30h15v-15h-74.999c-20.678 0-37.5-16.822-37.5-37.5v-7.5h133.703l58.016 69.942 9.69 58.393 14.797-2.455-8.573-51.665h97.153v60.393h15v-75.393z"/><path d="m497 364.751h-97.153l8.573-51.666-14.797-2.455-9.282 55.935-62.059 20.686h-73.8c4.718-6.271 7.518-14.065 7.518-22.5 0-12.253-5.907-23.152-15.023-30 9.116-6.848 15.023-17.747 15.023-30 0-12.254-5.909-23.153-15.026-30 9.117-6.847 15.026-17.746 15.026-30 0-20.678-16.822-37.5-37.5-37.5h-181c-12.406 0-22.5-10.094-22.5-22.5s10.094-22.5 22.5-22.5h30v-15h-30c-20.678 0-37.5 16.822-37.5 37.5s16.822 37.5 37.5 37.5h83.52c-4.719 6.272-7.52 14.064-7.52 22.5 0 14.06 7.778 26.337 19.257 32.756-7.236 6.84-11.757 16.523-11.757 27.243 0 16.085 10.181 29.838 24.436 35.153-5.868 6.62-9.436 15.324-9.436 24.847 0 20.678 16.822 37.5 37.5 37.5h151.216l67.502-22.499h119.782v-75.394h-15zm-368.5-120.001c0-12.406 10.094-22.5 22.5-22.5h67.5c12.406 0 22.5 10.094 22.5 22.5s-10.094 22.5-22.5 22.5h-67.5c-12.406 0-22.5-10.094-22.5-22.5zm7.5 60c0-12.406 10.094-22.5 22.5-22.5h60c12.406 0 22.5 10.094 22.5 22.5s-10.094 22.5-22.5 22.5h-60c-12.406 0-22.5-10.094-22.5-22.5zm82.5 82.5h-45c-12.406 0-22.5-10.094-22.5-22.5s10.094-22.5 22.5-22.5h45c12.406 0 22.5 10.094 22.5 22.5s-10.094 22.5-22.5 22.5z"/></g></g></svg>